<svg version="1.2" baseProfile="tiny-ps" xmlns="http://www.w3.org/2000/svg" viewBox="0 0 150 150" width="150" height="150">
	<title>v982-d3-01-ai</title>
	<style>
		tspan { white-space:pre }
		.shp0 { fill: #7bd568 } 
		.shp1 { fill: #010201 } 
	</style>
	<g id="Graphic Elements">
		<g id="Spotify">
			<g id="&lt;Group&gt;">
				<g id="&lt;Group&gt;">
					<g id="&lt;Group&gt;">
						<path id="&lt;Compound Path&gt;" fill-rule="evenodd" class="shp0" d="M142.37 74.55C142.37 111.83 112.15 142.05 74.87 142.05C37.6 142.05 7.37 111.83 7.37 74.55C7.37 37.27 37.6 7.05 74.87 7.05C112.15 7.05 142.37 37.27 142.37 74.55ZM104.44 98.62C86.64 87.75 64.59 85.22 38.88 91.1C36.61 91.62 35.19 93.87 35.71 96.14C36.23 98.4 38.48 99.82 40.75 99.3C64.24 93.93 84.2 96.12 100.05 105.81C102.03 107.02 104.62 106.4 105.83 104.41C107.04 102.43 106.42 99.83 104.44 98.62ZM112.36 78.79C91.52 65.99 61.05 62.39 36.53 69.83C33.75 70.67 32.18 73.61 33.02 76.39C33.87 79.17 36.81 80.74 39.59 79.9C61.05 73.38 88.71 76.61 106.85 87.76C109.33 89.28 112.56 88.51 114.09 86.03C115.61 83.56 114.83 80.32 112.36 78.79ZM123.45 64.68C125.23 61.69 124.25 57.81 121.25 56.03C96.2 41.16 56.56 39.76 32.72 47C29.38 48.02 27.5 51.54 28.51 54.88C29.52 58.21 33.05 60.1 36.38 59.09C57.16 52.78 93.04 53.97 114.8 66.89C117.8 68.67 121.67 67.68 123.45 64.68Z" />
					</g>
				</g>
			</g>
			<path id="&lt;Path&gt;" class="shp1" d="M105.83 104.41C104.62 106.4 102.03 107.02 100.05 105.81C84.2 96.12 64.24 93.93 40.75 99.3C38.48 99.82 36.23 98.4 35.71 96.14C35.19 93.87 36.61 91.62 38.88 91.1C64.59 85.22 86.64 87.75 104.44 98.62C106.42 99.83 107.04 102.43 105.83 104.41Z" />
			<path id="&lt;Path&gt;" class="shp1" d="M114.09 86.03C112.56 88.51 109.33 89.28 106.85 87.76C88.71 76.61 61.05 73.38 39.59 79.9C36.81 80.74 33.87 79.17 33.02 76.39C32.18 73.61 33.75 70.67 36.53 69.83C61.05 62.39 91.52 65.99 112.36 78.79C114.83 80.32 115.61 83.56 114.09 86.03Z" />
			<path id="&lt;Path&gt;" class="shp1" d="M114.8 66.89C93.04 53.97 57.16 52.78 36.38 59.09C33.05 60.1 29.52 58.21 28.51 54.88C27.5 51.54 29.38 48.02 32.72 47C56.56 39.76 96.2 41.16 121.25 56.03C124.25 57.81 125.23 61.69 123.45 64.68C121.67 67.68 117.8 68.67 114.8 66.89Z" />
		</g>
	</g>
</svg>