<svg version="1.2" baseProfile="tiny-ps" xmlns="http://www.w3.org/2000/svg" viewBox="0 0 150 150" width="150" height="150">
	<title>v982-d3-01-ai</title>
	<style>
		tspan { white-space:pre }
		.shp0 { fill: #4676ed } 
		.shp1 { fill: #ffffff } 
	</style>
	<g id="Graphic Elements">
		<g id="Facebook">
			<path id="&lt;Path&gt;" class="shp0" d="M86.22 142.13L86.22 94.96L101.94 94.96L104.94 75.45L86.22 75.45L86.22 62.78C86.22 57.45 88.83 52.24 97.22 52.24L105.73 52.24L105.73 35.63C100.58 34.75 95.54 34.31 90.62 34.31C75.2 34.31 65.12 43.66 65.12 60.57L65.12 75.45L47.98 75.45L47.98 94.96L65.12 94.96L65.12 142.13C32.85 137.06 8.17 109.14 8.17 75.45C8.17 38.17 38.39 7.95 75.67 7.95C112.95 7.95 143.17 38.17 143.17 75.45C143.17 109.14 118.49 137.06 86.22 142.13Z" />
			<path id="&lt;Path&gt;" class="shp1" d="M86.22 94.96L86.22 142.13C82.78 142.66 79.26 142.95 75.67 142.95C72.08 142.95 68.56 142.66 65.12 142.13L65.12 94.96L47.98 94.96L47.98 75.45L65.12 75.45L65.12 60.57C65.12 43.66 75.2 34.31 90.62 34.31C95.54 34.31 100.58 34.75 105.73 35.63L105.73 52.24L97.22 52.24C88.83 52.24 86.22 57.45 86.22 62.78L86.22 75.45L104.94 75.45L101.94 94.96L86.22 94.96Z" />
		</g>
	</g>
</svg>