<?xml version="1.0" encoding="UTF-8"?>
<svg xmlns="http://www.w3.org/2000/svg" xmlns:xlink="http://www.w3.org/1999/xlink" viewBox="0 0 480 480" width="480px" height="480px">
<g id="surface10353833">
<path style=" stroke:none;fill-rule:nonzero;fill:rgb(92.54902%,94.117647%,94.509804%);fill-opacity:1;" d="M 240 480 C 107.453125 480 0 372.546875 0 240 C 0 107.453125 107.453125 0 240 0 C 372.546875 0 480 107.453125 480 240 C 480 372.546875 372.546875 480 240 480 Z M 240 480 "/>
<path style=" stroke:none;fill-rule:nonzero;fill:rgb(100%,100%,100%);fill-opacity:1;" d="M 315.554688 277.777344 C 311.023438 233.957031 258.132812 203.734375 194.667969 210.535156 C 157.644531 214.3125 123.644531 230.179688 104.753906 252.84375 C 92.667969 267.199219 87.378906 283.820312 88.890625 300.445312 C 92.667969 340.488281 137.246094 368.445312 193.15625 368.445312 C 198.445312 368.445312 203.734375 368.445312 209.777344 367.6875 C 246.800781 363.910156 280.800781 348.042969 299.6875 325.378906 C 311.777344 311.023438 317.066406 294.398438 315.554688 277.777344 Z M 315.554688 277.777344 "/>
<path style=" stroke:none;fill-rule:nonzero;fill:rgb(82.745099%,18.431373%,18.431373%);fill-opacity:1;" d="M 208.265625 352.578125 C 154.621094 357.867188 107.777344 333.6875 104 298.933594 C 100.222656 264.179688 141.777344 230.933594 195.421875 225.644531 C 249.820312 220.355469 295.910156 244.535156 299.6875 279.289062 C 303.464844 314.800781 262.667969 347.289062 208.265625 352.578125 M 320.84375 239.246094 C 316.3125 237.734375 313.289062 236.976562 315.554688 230.933594 C 320.84375 218.089844 321.601562 206.753906 315.554688 198.445312 C 304.976562 183.332031 275.511719 184.089844 242.265625 197.6875 C 242.265625 197.6875 231.6875 202.222656 234.710938 193.910156 C 240 177.289062 239.246094 163.6875 230.933594 156.132812 C 212.800781 138 164.445312 156.890625 122.890625 197.6875 C 91.910156 228.667969 73.777344 261.15625 73.777344 289.109375 C 73.777344 343.511719 143.289062 376 212.042969 376 C 301.199219 376 360.890625 324.621094 360.890625 283.820312 C 360.890625 258.890625 339.734375 245.289062 320.84375 239.246094 "/>
<path style=" stroke:none;fill-rule:nonzero;fill:rgb(14.901961%,19.607843%,21.960784%);fill-opacity:1;" d="M 216.578125 288.355469 C 214.3125 292.132812 209.777344 294.398438 206 292.890625 C 202.222656 291.378906 201.464844 286.84375 202.976562 283.066406 C 205.246094 279.289062 209.777344 277.023438 212.800781 279.289062 C 217.332031 280.042969 218.089844 283.820312 216.578125 288.355469 M 191.644531 306.488281 C 186.355469 314.042969 174.265625 317.820312 165.199219 314.042969 C 156.132812 310.265625 153.867188 301.199219 159.15625 294.398438 C 164.445312 286.84375 175.777344 283.820312 184.84375 286.84375 C 194.667969 289.867188 197.6875 298.933594 191.644531 306.488281 M 213.554688 249.066406 C 187.109375 242.265625 157.644531 255.109375 146.3125 277.777344 C 134.976562 301.199219 145.554688 326.890625 172.753906 335.199219 C 199.957031 344.265625 232.445312 330.667969 243.777344 305.734375 C 255.109375 281.554688 240.753906 255.867188 213.554688 249.066406 "/>
<path style=" stroke:none;fill-rule:nonzero;fill:rgb(97.647059%,65.882355%,14.509805%);fill-opacity:1;" d="M 390.355469 209.777344 C 384.097656 209.777344 379.023438 214.851562 379.023438 221.109375 C 379.023438 227.371094 384.097656 232.445312 390.355469 232.445312 C 396.613281 232.445312 401.6875 227.371094 401.6875 221.109375 C 401.6875 214.851562 396.613281 209.777344 390.355469 209.777344 Z M 390.355469 209.777344 "/>
<path style=" stroke:none;fill-rule:nonzero;fill:rgb(97.647059%,65.882355%,14.509805%);fill-opacity:1;" d="M 400.933594 224.890625 C 399.421875 229.421875 394.890625 232.445312 390.355469 232.445312 C 384.3125 232.445312 379.023438 227.15625 379.023438 221.109375 C 379.023438 219.601562 379.023438 218.089844 379.777344 216.578125 C 382.042969 209.777344 383.554688 202.222656 383.554688 194.667969 C 383.554688 156.890625 353.332031 126.667969 315.554688 126.667969 C 312.535156 126.667969 308.753906 126.667969 305.734375 127.421875 C 305.734375 127.421875 305.734375 127.421875 304.976562 127.421875 L 304.222656 127.421875 C 298.179688 127.421875 292.890625 122.132812 292.890625 116.089844 C 292.890625 110.042969 298.179688 104.753906 304.222656 104.753906 C 308 104 311.777344 104 315.554688 104 C 365.421875 104 406.222656 144.800781 406.222656 194.667969 C 406.222656 205.246094 404.710938 215.066406 400.933594 224.890625 Z M 360.890625 194.667969 C 360.890625 169.734375 340.488281 149.332031 315.554688 149.332031 C 314.042969 149.332031 312.535156 149.332031 310.265625 149.332031 C 310.265625 149.332031 310.265625 149.332031 309.511719 149.332031 C 304.222656 150.089844 299.6875 154.621094 299.6875 160.667969 C 299.6875 166.710938 304.976562 172 311.023438 172 L 311.777344 172 C 312.535156 172 314.042969 172 314.800781 172 C 327.644531 172 337.464844 181.820312 337.464844 194.667969 C 337.464844 196.933594 336.710938 199.957031 335.957031 202.222656 C 335.199219 203.734375 335.199219 204.488281 335.199219 206 C 335.199219 212.042969 340.488281 217.332031 346.535156 217.332031 C 351.066406 217.332031 354.84375 214.3125 357.109375 210.535156 L 357.109375 209.777344 C 357.109375 209.023438 357.109375 209.023438 357.867188 208.265625 C 360.132812 203.734375 360.890625 199.199219 360.890625 194.667969 Z M 360.890625 194.667969 "/>
</g>
</svg>
