<svg version="1.2" baseProfile="tiny-ps" xmlns="http://www.w3.org/2000/svg" viewBox="0 0 150 150" width="150" height="150">
	<title>v982-d3-01-ai</title>
	<style>
		tspan { white-space:pre }
		.shp0 { fill: #da0000 } 
		.shp1 { fill: #ffffff } 
	</style>
	<g id="Graphic Elements">
		<g id="YouTube">
			<path id="&lt;Path&gt;" class="shp0" d="M142.5 74.46C142.5 111.74 112.28 141.96 75 141.96C37.72 141.96 7.5 111.74 7.5 74.46C7.5 37.18 37.72 6.96 75 6.96C112.28 6.96 142.5 37.18 142.5 74.46Z" />
			<path id="&lt;Compound Path&gt;" fill-rule="evenodd" class="shp1" d="M120 74.46C120 84.23 119.37 91.45 118.12 96.13C117.08 100 114.03 103.05 110.16 104.08C105.48 105.34 93.76 105.96 75 105.96C56.24 105.96 44.52 105.34 39.84 104.08C35.97 103.05 32.92 100 31.88 96.13C30.63 91.45 30 84.23 30 74.46C30 64.7 30.63 57.48 31.88 52.8C32.92 48.93 35.97 45.88 39.84 44.84C44.52 43.59 56.24 42.96 75 42.96C93.76 42.96 105.48 43.59 110.16 44.84C114.03 45.88 117.08 48.93 118.12 52.8C119.37 57.48 120 64.7 120 74.46ZM89.38 74.46L66 60.96L66 87.96L89.38 74.46Z" />
		</g>
	</g>
</svg>