<svg xmlns="http://www.w3.org/2000/svg" version="1.1" xmlns:xlink="http://www.w3.org/1999/xlink" xmlns:svgjs="http://svgjs.com/svgjs" width="310" height="245"><svg version="1.2" baseProfile="tiny-ps" xmlns="http://www.w3.org/2000/svg" viewBox="0 0 310 245" width="310" height="245">
	<title>SJ_Logo</title>
	<path whitespace="pre" opacity="1" fill="currentColor" id="SvgjsPath1000" class="shp0" d="M123.5 39.53C154.3 39.85 180.18 40.07 181 40.02C181.82 39.98 186.66 44.9 191.75 50.97C196.84 57.04 200.7 62.23 200.33 62.5C199.97 62.78 171.28 63.03 73.5 63.11L54.25 84.5L139.13 84.75C185.81 84.89 223.99 85.34 223.98 85.75C223.96 86.16 221.6 89.2 218.74 92.5C215.87 95.8 203.16 110.33 167.5 151.09L133 151.04C114.03 151.01 94.75 150.65 81.84 149.5L73.67 140.16C69.18 135.02 65.38 130.3 65.22 129.66C65.02 128.79 76.28 128.58 110.22 128.82C135.13 129 156.51 128.89 157.75 128.57C158.99 128.26 162.33 124.96 165.18 121.25C168.02 117.54 171.96 112.54 177.5 105.8L42.74 106.5L32.87 96C27.44 90.22 23.11 85.21 23.25 84.86C23.39 84.51 32.42 74.61 43.32 62.86C54.22 51.11 64.12 40.93 65.32 40.23C67.04 39.23 79.26 39.08 123.5 39.53ZM239.71 39.5L261.6 61.87C273.65 74.18 283.63 84.53 283.78 84.87C283.94 85.22 256.54 116.1 222.91 153.5C189.27 190.9 159.89 223.49 153.5 230.36L145 221.33C140.32 216.37 129.07 204.35 120 194.64C110.92 184.92 103.39 176.53 103.25 175.99C103.09 175.37 108.2 175 130.5 175.02L141 186.43C146.78 192.7 151.72 197.84 152 197.85C152.28 197.85 158.8 190.86 166.5 182.32C174.2 173.77 183.88 163.09 188 158.6C192.13 154.11 208.55 136.12 224.5 118.62C240.45 101.13 253.63 86.3 253.79 85.66C253.95 85.02 247.43 77.53 239.3 69C231.17 60.47 221.7 50.58 218.26 47C214.81 43.42 212.19 40.27 212.42 40C212.65 39.73 218.88 39.5 239.71 39.5Z"></path>
</svg><style>@media (prefers-color-scheme: light) { :root { filter: none; } }
@media (prefers-color-scheme: dark) { :root { filter: invert(100%); } }
</style></svg>