<svg version="1.2" baseProfile="tiny-ps" xmlns="http://www.w3.org/2000/svg" viewBox="0 0 150 150" width="150" height="150">
	<title>v982-d3-01-ai</title>
	<style>
		tspan { white-space:pre }
		.shp0 { fill: #5a99ec } 
		.shp1 { fill: #ffffff } 
	</style>
	<g id="Graphic Elements">
		<g id="Twitter">
			<path id="&lt;Path&gt;" class="shp0" d="M142.83 74.45C142.83 111.73 112.61 141.95 75.33 141.95C38.05 141.95 7.83 111.73 7.83 74.45C7.83 37.17 38.05 6.95 75.33 6.95C112.61 6.95 142.83 37.17 142.83 74.45Z" />
			<g id="&lt;Group&gt;">
				<g id="&lt;Group&gt;">
					<path id="&lt;Path&gt;" class="shp1" d="M34.22 105.27C35.62 105.44 37.05 105.52 38.49 105.52C46.89 105.52 54.62 102.65 60.75 97.85C52.91 97.7 46.29 92.52 44.01 85.4C45.1 85.61 46.22 85.72 47.38 85.72C49.01 85.72 50.6 85.5 52.1 85.09C43.9 83.45 37.72 76.2 37.72 67.52C37.72 67.44 37.72 67.36 37.73 67.29C40.14 68.63 42.91 69.44 45.85 69.53C41.03 66.32 37.87 60.83 37.87 54.61C37.87 51.33 38.76 48.25 40.3 45.6C49.14 56.45 62.35 63.58 77.24 64.33C76.93 63.02 76.78 61.65 76.78 60.24C76.78 50.35 84.8 42.32 94.7 42.32C99.86 42.32 104.51 44.5 107.79 47.98C111.87 47.18 115.7 45.69 119.17 43.63C117.83 47.82 114.99 51.33 111.29 53.55C114.91 53.11 118.37 52.15 121.58 50.73C119.18 54.32 116.14 57.48 112.64 60.01C112.67 60.78 112.69 61.55 112.69 62.32C112.69 86.01 94.66 113.32 61.69 113.32C51.57 113.32 42.15 110.35 34.22 105.27Z" />
				</g>
			</g>
		</g>
	</g>
</svg>