<svg version="1.2" baseProfile="tiny-ps" xmlns="http://www.w3.org/2000/svg" viewBox="0 0 1200 1200" width="1200" height="1200">
	<title>v982-d3-01-ai</title>
	<defs>
		<clipPath clipPathUnits="userSpaceOnUse" id="cp1">
			<path d="M600 207.95C637.28 207.95 667.5 238.17 667.5 275.45C667.5 312.73 637.28 342.95 600 342.95C562.72 342.95 532.5 312.73 532.5 275.45C532.5 238.17 562.72 207.95 600 207.95Z" />
		</clipPath>
		<radialGradient id="grd1" gradientUnits="userSpaceOnUse"  cx="344.467" cy="326.094" r="111.139">
			<stop offset="0" stop-color="#5697fb"  />
			<stop offset="0.61" stop-color="#8936f9"  />
			<stop offset="0.935" stop-color="#dd537e"  />
			<stop offset="1" stop-color="#e06f62"  />
		</radialGradient>
		<linearGradient id="grd2" gradientUnits="userSpaceOnUse"  x1="754.665" y1="333.138" x2="754.665" y2="198.138">
			<stop offset="0" stop-color="#78cd51"  />
			<stop offset="1" stop-color="#a0fc84"  />
		</linearGradient>
		<linearGradient id="grd3" gradientUnits="userSpaceOnUse"  x1="947.759" y1="465.427" x2="1043.219" y2="369.968">
			<stop offset="0" stop-color="#e17756"  />
			<stop offset="1" stop-color="#d92a7a"  />
		</linearGradient>
		<linearGradient id="grd4" gradientUnits="userSpaceOnUse"  x1="82.17" y1="924.053" x2="82.17" y2="789.053">
			<stop offset="0.005" stop-color="#00cd63"  />
			<stop offset="0.631" stop-color="#00de7d"  />
			<stop offset="1" stop-color="#00e88d"  />
		</linearGradient>
		<linearGradient id="grd5" gradientUnits="userSpaceOnUse"  x1="306.335" y1="1129.155" x2="306.335" y2="994.155">
			<stop offset="0" stop-color="#1d93d2"  />
			<stop offset="1" stop-color="#38b0e3"  />
		</linearGradient>
		<linearGradient id="grd6" gradientUnits="userSpaceOnUse"  x1="669.5" y1="1010.661" x2="669.5" y2="1124.338">
			<stop offset="0" stop-color="#f8a01d"  />
			<stop offset="0.473" stop-color="#f26e23"  />
			<stop offset="1" stop-color="#ef5826"  />
		</linearGradient>
		<linearGradient id="grd7" gradientUnits="userSpaceOnUse"  x1="482.848" y1="833.973" x2="491.212" y2="886.779">
			<stop offset="0.012" stop-color="#00b7f0"  />
			<stop offset="0.339" stop-color="#009de5"  />
			<stop offset="0.755" stop-color="#0082d9"  />
			<stop offset="1" stop-color="#0078d4"  />
		</linearGradient>
		<linearGradient id="grd8" gradientUnits="userSpaceOnUse"  x1="644.072" y1="981.428" x2="690.502" y2="954.623">
			<stop offset="0" stop-color="#0078d4"  />
			<stop offset="0.37" stop-color="#007ad5"  />
			<stop offset="0.573" stop-color="#0082d9"  />
			<stop offset="0.735" stop-color="#0090df"  />
			<stop offset="0.875" stop-color="#00a3e7"  />
			<stop offset="1" stop-color="#00bcf2"  />
		</linearGradient>
		<linearGradient id="grd9" gradientUnits="userSpaceOnUse"  x1="483.721" y1="893.7" x2="526.094" y2="967.091">
			<stop offset="0" stop-color="#00b7f0"  />
			<stop offset="1" stop-color="#007cc1"  />
		</linearGradient>
	</defs>
	<style>
		tspan { white-space:pre }
		.shp0 { fill: #000000 } 
		.shp1 { fill: #ffffff } 
		.shp2 { fill: url(#grd1) } 
		.shp3 { fill: url(#grd2) } 
		.shp4 { fill: #5a99ec } 
		.shp5 { fill: #121f37 } 
		.shp6 { fill: #c40027 } 
		.shp7 { fill: #da0000 } 
		.shp8 { fill: url(#grd3) } 
		.shp9 { fill: #4467ad } 
		.shp10 { fill: #fefefe } 
		.shp11 { fill: #0063dc } 
		.shp12 { fill: #ff0084 } 
		.shp13 { fill: #fefb00 } 
		.shp14 { fill: url(#grd4) } 
		.shp15 { fill: url(#grd5) } 
		.shp16 { fill: #c8daea } 
		.shp17 { fill: #a9c6d8 } 
		.shp18 { fill: #dc4711 } 
		.shp19 { fill: #9146ff } 
		.shp20 { fill: #ea4c89 } 
		.shp21 { fill: #c32361 } 
		.shp22 { fill: #1ab7ea } 
		.shp23 { fill: url(#grd6) } 
		.shp24 { opacity: 0.902;fill: #ffffff } 
		.shp25 { fill: #fee712 } 
		.shp26 { fill: url(#grd7) } 
		.shp27 { fill: url(#grd8) } 
		.shp28 { opacity: 0.051;fill: #000000 } 
		.shp29 { opacity: 0.102;fill: #000000 } 
		.shp30 { fill: url(#grd9) } 
		.shp31 { fill: #010201 } 
		.shp32 { fill: #cb1c54 } 
		.shp33 { fill: #6abac5 } 
		.shp34 { fill: #68b82b } 
		.shp35 { fill: #4676ed } 
		.shp36 { fill: #7bd568 } 
	</style>
	<g id="Graphic Elements">
		<g id="Título">
			<path id="&lt;Compound Path&gt;" class="shp0" d="M174.09 127.85C171.04 126.94 168.55 125.7 166.63 124.14C165.6 123.38 165.09 122.31 165.09 120.92C165.09 119.99 165.37 119.17 165.93 118.48C166.48 117.79 167.14 117.44 167.9 117.44C168.7 117.44 169.62 117.76 170.65 118.38C172.56 119.76 174.57 120.77 176.67 121.39C178.76 122.02 181.08 122.33 183.63 122.33C186.88 122.33 189.38 121.76 191.12 120.62C192.86 119.48 193.73 117.82 193.73 115.64C193.73 113.94 192.92 112.64 191.29 111.72C189.66 110.81 186.95 109.93 183.16 109.08C179.23 108.23 176.04 107.25 173.59 106.14C171.14 105.02 169.28 103.59 168.04 101.85C166.79 100.11 166.16 97.9 166.16 95.23C166.16 92.46 166.94 89.99 168.5 87.8C170.06 85.62 172.24 83.91 175.03 82.68C177.82 81.46 180.95 80.84 184.43 80.84C190.81 80.84 196.01 82.54 200.02 85.93C200.6 86.42 201.01 86.9 201.26 87.37C201.5 87.83 201.63 88.43 201.63 89.14C201.63 90.08 201.35 90.89 200.79 91.58C200.23 92.27 199.57 92.62 198.82 92.62C198.37 92.62 197.96 92.55 197.58 92.42C197.2 92.28 196.7 92.04 196.07 91.68C194.24 90.34 192.47 89.35 190.75 88.7C189.04 88.06 186.93 87.73 184.43 87.73C181.4 87.73 179 88.35 177.24 89.57C175.47 90.8 174.59 92.51 174.59 94.69C174.59 96.52 175.37 97.93 176.94 98.91C178.5 99.89 181.15 100.81 184.9 101.65C188.87 102.55 192.09 103.54 194.57 104.63C197.04 105.72 198.94 107.12 200.25 108.81C201.57 110.51 202.23 112.63 202.23 115.17C202.23 117.94 201.46 120.38 199.92 122.5C198.38 124.62 196.22 126.27 193.43 127.45C190.64 128.63 187.44 129.22 183.83 129.22C180.39 129.22 177.15 128.76 174.09 127.85Z" />
			<path id="&lt;Compound Path&gt;" fill-rule="evenodd" class="shp0" d="M229.3 126.28C225.93 124.31 223.33 121.5 221.5 117.85C219.67 114.19 218.76 109.91 218.76 105C218.76 100.09 219.66 95.82 221.47 92.18C223.27 88.55 225.87 85.75 229.26 83.79C232.65 81.82 236.64 80.84 241.24 80.84C245.83 80.84 249.81 81.82 253.18 83.79C256.55 85.75 259.14 88.55 260.95 92.18C262.75 95.82 263.66 100.09 263.66 105C263.66 109.91 262.74 114.19 260.91 117.85C259.08 121.5 256.48 124.31 253.12 126.28C249.75 128.24 245.79 129.22 241.24 129.22C236.64 129.22 232.66 128.24 229.3 126.28ZM251.38 117.85C253.81 114.86 255.02 110.57 255.02 105C255.02 99.42 253.81 95.15 251.38 92.18C248.94 89.22 245.57 87.73 241.24 87.73C236.87 87.73 233.47 89.22 231.03 92.18C228.6 95.15 227.39 99.42 227.39 105C227.39 110.57 228.6 114.86 231.03 117.85C233.47 120.83 236.87 122.33 241.24 122.33C245.57 122.33 248.94 120.83 251.38 117.85Z" />
			<path id="&lt;Compound Path&gt;" class="shp0" d="M291.53 126.28C288.11 124.31 285.49 121.5 283.66 117.85C281.83 114.19 280.92 109.91 280.92 105C280.92 100.09 281.83 95.82 283.66 92.18C285.49 88.55 288.11 85.75 291.53 83.79C294.94 81.82 298.92 80.84 303.47 80.84C306.41 80.84 309.18 81.28 311.77 82.15C314.35 83.02 316.65 84.28 318.66 85.93C319.24 86.37 319.64 86.84 319.86 87.33C320.09 87.82 320.2 88.43 320.2 89.14C320.2 90.12 319.93 90.95 319.39 91.62C318.86 92.28 318.21 92.62 317.45 92.62C316.56 92.62 315.65 92.31 314.71 91.68C312.79 90.25 311.01 89.26 309.36 88.7C307.71 88.15 305.88 87.87 303.87 87.87C299.23 87.87 295.72 89.32 293.33 92.22C290.95 95.12 289.75 99.38 289.75 105C289.75 110.66 290.95 114.95 293.33 117.85C295.72 120.75 299.23 122.19 303.87 122.19C305.79 122.19 307.56 121.91 309.19 121.33C310.82 120.75 312.66 119.76 314.71 118.38C315.16 118.11 315.6 117.89 316.05 117.71C316.5 117.53 316.96 117.44 317.45 117.44C318.21 117.44 318.86 117.78 319.39 118.45C319.93 119.12 320.2 119.94 320.2 120.92C320.2 121.59 320.09 122.18 319.86 122.7C319.64 123.21 319.24 123.69 318.66 124.14C316.65 125.79 314.35 127.05 311.77 127.92C309.18 128.79 306.41 129.22 303.47 129.22C298.92 129.22 294.94 128.24 291.53 126.28Z" />
			<path id="&lt;Compound Path&gt;" class="shp0" d="M338.97 127.82C338.19 127.01 337.8 125.97 337.8 124.67L337.8 85.39C337.8 84.1 338.19 83.06 338.97 82.28C339.75 81.5 340.78 81.11 342.08 81.11C343.42 81.11 344.48 81.5 345.26 82.28C346.04 83.06 346.43 84.1 346.43 85.39L346.43 124.67C346.43 125.97 346.04 127.01 345.26 127.82C344.48 128.62 343.42 129.02 342.08 129.02C340.78 129.02 339.75 128.62 338.97 127.82Z" />
			<path id="&lt;Compound Path&gt;" fill-rule="evenodd" class="shp0" d="M409.8 125.21C409.8 126.23 409.38 127.1 408.56 127.82C407.73 128.53 406.78 128.89 405.71 128.89C405 128.89 404.33 128.7 403.71 128.32C403.08 127.94 402.59 127.35 402.23 126.54L398.22 117.58L374.67 117.58L370.65 126.54C370.29 127.35 369.8 127.94 369.18 128.32C368.55 128.7 367.86 128.89 367.1 128.89C366.08 128.89 365.14 128.53 364.29 127.82C363.45 127.1 363.02 126.23 363.02 125.21C363.02 124.63 363.16 124.05 363.42 123.47L381.89 83.79C382.29 82.89 382.91 82.21 383.73 81.74C384.56 81.28 385.44 81.04 386.38 81.04C387.31 81.04 388.19 81.28 389.02 81.74C389.84 82.21 390.46 82.89 390.86 83.79L409.39 123.47C409.66 124.05 409.8 124.63 409.8 125.21ZM377.61 110.89L395.28 110.89L386.44 91.01L377.61 110.89Z" />
			<path id="&lt;Compound Path&gt;" class="shp0" d="M427.39 127.55C426.68 126.84 426.32 125.85 426.32 124.6L426.32 85.39C426.32 84.1 426.71 83.06 427.49 82.28C428.27 81.5 429.31 81.11 430.61 81.11C431.94 81.11 433 81.5 433.78 82.28C434.56 83.06 434.96 84.1 434.96 85.39L434.96 121.53L453.76 121.53C456.44 121.53 457.77 122.71 457.77 125.07C457.77 127.44 456.44 128.62 453.76 128.62L430.41 128.62C429.11 128.62 428.11 128.26 427.39 127.55Z" />
			<path id="&lt;Compound Path&gt;" class="shp0" d="M546.57 82.28C547.33 83.06 547.71 84.1 547.71 85.39L547.71 125.01C547.71 126.25 547.35 127.24 546.64 127.95C545.92 128.66 544.98 129.02 543.83 129.02C542.66 129.02 541.75 128.66 541.08 127.95C540.41 127.24 540.08 126.25 540.08 125.01L540.08 97.44L528.7 118.98C528.17 119.96 527.59 120.69 526.96 121.16C526.34 121.63 525.6 121.86 524.75 121.86C523.91 121.86 523.17 121.64 522.55 121.19C521.92 120.75 521.34 120.01 520.81 118.98L509.36 97.77L509.36 125.01C509.36 126.21 509.02 127.18 508.33 127.92C507.63 128.65 506.71 129.02 505.55 129.02C504.39 129.02 503.48 128.66 502.81 127.95C502.14 127.24 501.8 126.25 501.8 125.01L501.8 85.39C501.8 84.1 502.17 83.06 502.91 82.28C503.64 81.5 504.63 81.11 505.88 81.11C507.62 81.11 508.98 82.07 509.97 83.99L524.82 112.29L539.61 83.99C540.59 82.07 541.91 81.11 543.56 81.11C544.81 81.11 545.81 81.5 546.57 82.28Z" />
			<path id="&lt;Compound Path&gt;" class="shp0" d="M569.08 127.55C568.35 126.84 567.98 125.83 567.98 124.54L567.98 85.53C567.98 84.23 568.35 83.23 569.08 82.51C569.82 81.8 570.83 81.44 572.13 81.44L596.29 81.44C597.58 81.44 598.58 81.73 599.3 82.31C600.01 82.89 600.37 83.72 600.37 84.79C600.37 85.91 600.01 86.76 599.3 87.37C598.58 87.97 597.58 88.27 596.29 88.27L576.41 88.27L576.41 101.25L594.95 101.25C596.24 101.25 597.24 101.54 597.96 102.12C598.67 102.7 599.03 103.55 599.03 104.66C599.03 105.73 598.67 106.56 597.96 107.14C597.24 107.72 596.24 108.01 594.95 108.01L576.41 108.01L576.41 121.79L596.29 121.79C597.58 121.79 598.58 122.09 599.3 122.7C600.01 123.3 600.37 124.16 600.37 125.27C600.37 126.34 600.01 127.17 599.3 127.75C598.58 128.33 597.58 128.62 596.29 128.62L572.13 128.62C570.83 128.62 569.82 128.26 569.08 127.55Z" />
			<path id="&lt;Compound Path&gt;" fill-rule="evenodd" class="shp0" d="M618.53 127.55C617.8 126.84 617.43 125.83 617.43 124.54L617.43 85.53C617.43 84.23 617.8 83.23 618.53 82.51C619.27 81.8 620.28 81.44 621.58 81.44L634.83 81.44C642.54 81.44 648.53 83.51 652.79 87.63C657.05 91.76 659.18 97.55 659.18 105C659.18 112.49 657.05 118.3 652.79 122.43C648.53 126.56 642.54 128.62 634.83 128.62L621.58 128.62C620.28 128.62 619.27 128.26 618.53 127.55ZM634.29 121.59C645.13 121.59 650.55 116.06 650.55 105C650.55 93.98 645.13 88.47 634.29 88.47L626.06 88.47L626.06 121.59L634.29 121.59Z" />
			<path id="&lt;Compound Path&gt;" class="shp0" d="M679.09 127.82C678.31 127.01 677.92 125.97 677.92 124.67L677.92 85.39C677.92 84.1 678.31 83.06 679.09 82.28C679.87 81.5 680.91 81.11 682.2 81.11C683.54 81.11 684.6 81.5 685.38 82.28C686.16 83.06 686.55 84.1 686.55 85.39L686.55 124.67C686.55 125.97 686.16 127.01 685.38 127.82C684.6 128.62 683.54 129.02 682.2 129.02C680.91 129.02 679.87 128.62 679.09 127.82Z" />
			<path id="&lt;Compound Path&gt;" fill-rule="evenodd" class="shp0" d="M749.92 125.21C749.92 126.23 749.51 127.1 748.68 127.82C747.86 128.53 746.91 128.89 745.84 128.89C745.12 128.89 744.46 128.7 743.83 128.32C743.21 127.94 742.72 127.35 742.36 126.54L738.34 117.58L714.79 117.58L710.77 126.54C710.42 127.35 709.93 127.94 709.3 128.32C708.68 128.7 707.99 128.89 707.23 128.89C706.2 128.89 705.26 128.53 704.42 127.82C703.57 127.1 703.15 126.23 703.15 125.21C703.15 124.63 703.28 124.05 703.55 123.47L722.02 83.79C722.42 82.89 723.03 82.21 723.86 81.74C724.68 81.28 725.56 81.04 726.5 81.04C727.44 81.04 728.32 81.28 729.14 81.74C729.97 82.21 730.58 82.89 730.98 83.79L749.52 123.47C749.79 124.05 749.92 124.63 749.92 125.21ZM717.73 110.89L735.4 110.89L726.57 91.01L717.73 110.89Z" />
			<path id="&lt;Compound Path&gt;" class="shp0" d="M795.79 127.82C795.01 127.01 794.62 125.97 794.62 124.67L794.62 85.39C794.62 84.1 795.01 83.06 795.79 82.28C796.57 81.5 797.61 81.11 798.9 81.11C800.24 81.11 801.3 81.5 802.08 82.28C802.86 83.06 803.25 84.1 803.25 85.39L803.25 124.67C803.25 125.97 802.86 127.01 802.08 127.82C801.3 128.62 800.24 129.02 798.9 129.02C797.61 129.02 796.57 128.62 795.79 127.82Z" />
			<path id="&lt;Compound Path&gt;" class="shp0" d="M832.59 126.28C829.18 124.31 826.56 121.5 824.73 117.85C822.9 114.19 821.99 109.91 821.99 105C821.99 100.09 822.9 95.82 824.73 92.18C826.56 88.55 829.18 85.75 832.59 83.79C836 81.82 839.99 80.84 844.54 80.84C847.48 80.84 850.25 81.28 852.83 82.15C855.42 83.02 857.72 84.28 859.73 85.93C860.3 86.37 860.71 86.84 860.93 87.33C861.15 87.82 861.26 88.43 861.26 89.14C861.26 90.12 861 90.95 860.46 91.62C859.93 92.28 859.28 92.62 858.52 92.62C857.63 92.62 856.71 92.31 855.78 91.68C853.86 90.25 852.07 89.26 850.42 88.7C848.77 88.15 846.95 87.87 844.94 87.87C840.3 87.87 836.78 89.32 834.4 92.22C832.01 95.12 830.82 99.38 830.82 105C830.82 110.66 832.01 114.95 834.4 117.85C836.78 120.75 840.3 122.19 844.94 122.19C846.86 122.19 848.63 121.91 850.26 121.33C851.89 120.75 853.73 119.76 855.78 118.38C856.22 118.11 856.67 117.89 857.12 117.71C857.56 117.53 858.03 117.44 858.52 117.44C859.28 117.44 859.93 117.78 860.46 118.45C861 119.12 861.26 119.94 861.26 120.92C861.26 121.59 861.15 122.18 860.93 122.7C860.71 123.21 860.3 123.69 859.73 124.14C857.72 125.79 855.42 127.05 852.83 127.92C850.25 128.79 847.48 129.22 844.54 129.22C839.99 129.22 836 128.24 832.59 126.28Z" />
			<path id="&lt;Compound Path&gt;" fill-rule="evenodd" class="shp0" d="M887.06 126.28C883.69 124.31 881.09 121.5 879.27 117.85C877.44 114.19 876.52 109.91 876.52 105C876.52 100.09 877.43 95.82 879.23 92.18C881.04 88.55 883.64 85.75 887.03 83.79C890.42 81.82 894.41 80.84 899.01 80.84C903.6 80.84 907.58 81.82 910.95 83.79C914.32 85.75 916.9 88.55 918.71 92.18C920.52 95.82 921.42 100.09 921.42 105C921.42 109.91 920.51 114.19 918.68 117.85C916.85 121.5 914.25 124.31 910.88 126.28C907.51 128.24 903.56 129.22 899.01 129.22C894.41 129.22 890.43 128.24 887.06 126.28ZM909.14 117.85C911.57 114.86 912.79 110.57 912.79 105C912.79 99.42 911.57 95.15 909.14 92.18C906.71 89.22 903.33 87.73 899.01 87.73C894.63 87.73 891.23 89.22 888.8 92.18C886.37 95.15 885.15 99.42 885.15 105C885.15 110.57 886.37 114.86 888.8 117.85C891.23 120.83 894.63 122.33 899.01 122.33C903.33 122.33 906.71 120.83 909.14 117.85Z" />
			<path id="&lt;Compound Path&gt;" class="shp0" d="M978.87 82.28C979.6 83.06 979.97 84.1 979.97 85.39L979.97 124.67C979.97 125.97 979.59 127.01 978.83 127.82C978.08 128.62 977.1 129.02 975.89 129.02C974.46 129.02 973.37 128.51 972.61 127.48L948.19 95.7L948.19 124.67C948.19 125.97 947.83 127.01 947.12 127.82C946.4 128.62 945.42 129.02 944.17 129.02C942.92 129.02 941.94 128.62 941.23 127.82C940.51 127.01 940.16 125.97 940.16 124.67L940.16 85.39C940.16 84.1 940.54 83.06 941.3 82.28C942.05 81.5 943.06 81.11 944.31 81.11C945.69 81.11 946.76 81.62 947.52 82.65L971.88 114.3L971.88 85.39C971.88 84.1 972.24 83.06 972.98 82.28C973.72 81.5 974.69 81.11 975.89 81.11C977.14 81.11 978.13 81.5 978.87 82.28Z" />
			<path id="&lt;Compound Path&gt;" class="shp0" d="M1006.77 127.85C1003.72 126.94 1001.23 125.7 999.31 124.14C998.28 123.38 997.77 122.31 997.77 120.92C997.77 119.99 998.05 119.17 998.61 118.48C999.17 117.79 999.82 117.44 1000.58 117.44C1001.38 117.44 1002.3 117.76 1003.33 118.38C1005.24 119.76 1007.25 120.77 1009.35 121.39C1011.44 122.02 1013.76 122.33 1016.31 122.33C1019.56 122.33 1022.06 121.76 1023.8 120.62C1025.54 119.48 1026.41 117.82 1026.41 115.64C1026.41 113.94 1025.6 112.64 1023.97 111.72C1022.34 110.81 1019.63 109.93 1015.84 109.08C1011.91 108.23 1008.72 107.25 1006.27 106.14C1003.82 105.02 1001.96 103.59 1000.72 101.85C999.47 100.11 998.84 97.9 998.84 95.23C998.84 92.46 999.62 89.99 1001.18 87.8C1002.75 85.62 1004.92 83.91 1007.71 82.68C1010.5 81.46 1013.63 80.84 1017.11 80.84C1023.49 80.84 1028.69 82.54 1032.7 85.93C1033.28 86.42 1033.69 86.9 1033.94 87.37C1034.18 87.83 1034.31 88.43 1034.31 89.14C1034.31 90.08 1034.03 90.89 1033.47 91.58C1032.91 92.27 1032.25 92.62 1031.5 92.62C1031.05 92.62 1030.64 92.55 1030.26 92.42C1029.88 92.28 1029.38 92.04 1028.75 91.68C1026.92 90.34 1025.15 89.35 1023.43 88.7C1021.71 88.06 1019.61 87.73 1017.11 87.73C1014.08 87.73 1011.68 88.35 1009.92 89.57C1008.15 90.8 1007.27 92.51 1007.27 94.69C1007.27 96.52 1008.05 97.93 1009.62 98.91C1011.18 99.89 1013.83 100.81 1017.58 101.65C1021.55 102.55 1024.77 103.54 1027.25 104.63C1029.72 105.72 1031.62 107.12 1032.94 108.81C1034.25 110.51 1034.91 112.63 1034.91 115.17C1034.91 117.94 1034.14 120.38 1032.6 122.5C1031.06 124.62 1028.9 126.27 1026.11 127.45C1023.32 128.63 1020.12 129.22 1016.51 129.22C1013.07 129.22 1009.83 128.76 1006.77 127.85Z" />
		</g>
		<g id="Instagram">
			<g id="&lt;Clip Group&gt;" clip-path="url(#cp1)">
			</g>
			<g id="&lt;Group&gt;">
				<g id="&lt;Group&gt;">
					<path id="&lt;Compound Path&gt;" fill-rule="evenodd" class="shp1" d="M617.52 233.2C622.05 233.41 625.14 234.13 627.84 235.18C630.63 236.26 633 237.72 635.37 240.08C637.73 242.44 639.18 244.81 640.27 247.61C641.32 250.31 642.04 253.4 642.24 257.92C642.45 262.46 642.5 263.9 642.5 275.45C642.5 286.99 642.45 288.44 642.24 292.97C642.04 297.49 641.32 300.58 640.27 303.29C639.18 306.08 637.73 308.45 635.37 310.81C633 313.18 630.63 314.63 627.84 315.71C625.14 316.77 622.05 317.48 617.52 317.69C612.99 317.9 611.54 317.95 600 317.95C588.46 317.95 587.01 317.9 582.48 317.69C577.95 317.48 574.86 316.77 572.16 315.71C569.37 314.63 567 313.18 564.63 310.81C562.27 308.45 560.82 306.08 559.73 303.29C558.68 300.58 557.96 297.49 557.76 292.97C557.55 288.44 557.5 286.99 557.5 275.45C557.5 263.9 557.55 262.46 557.76 257.92C557.96 253.4 558.68 250.31 559.73 247.61C560.82 244.81 562.27 242.44 564.63 240.08C567 237.72 569.37 236.26 572.16 235.18C574.86 234.13 577.95 233.41 582.48 233.2C587.01 232.99 588.46 232.95 600 232.95C611.54 232.95 612.99 232.99 617.52 233.2ZM582.83 240.85C578.68 241.04 576.43 241.73 574.93 242.31C572.95 243.09 571.54 244.01 570.05 245.49C568.56 246.98 567.64 248.4 566.87 250.38C566.29 251.88 565.59 254.13 565.41 258.27C565.2 262.75 565.16 264.1 565.16 275.45C565.16 286.79 565.2 288.14 565.41 292.62C565.59 296.76 566.29 299.01 566.87 300.51C567.64 302.49 568.56 303.91 570.05 305.4C571.54 306.89 572.95 307.81 574.93 308.58C576.43 309.16 578.68 309.85 582.83 310.04C587.31 310.24 588.65 310.29 600 310.29C611.35 310.29 612.69 310.24 617.17 310.04C621.32 309.85 623.57 309.16 625.07 308.58C627.05 307.81 628.46 306.89 629.95 305.4C631.44 303.91 632.36 302.49 633.13 300.51C633.71 299.01 634.41 296.76 634.59 292.62C634.8 288.14 634.84 286.79 634.84 275.45C634.84 264.1 634.8 262.75 634.59 258.27C634.41 254.13 633.71 251.88 633.13 250.38C632.36 248.4 631.44 246.98 629.95 245.49C628.46 244.01 627.05 243.09 625.07 242.31C623.57 241.73 621.32 241.04 617.17 240.85C612.69 240.65 611.35 240.6 600 240.6C588.65 240.6 587.31 240.65 582.83 240.85Z" />
					<path id="&lt;Compound Path&gt;" fill-rule="evenodd" class="shp1" d="M621.82 275.45C621.82 287.5 612.05 297.27 600 297.27C587.95 297.27 578.18 287.5 578.18 275.45C578.18 263.39 587.95 253.62 600 253.62C612.05 253.62 621.82 263.39 621.82 275.45ZM614.17 275.45C614.17 267.62 607.82 261.28 600 261.28C592.18 261.28 585.83 267.62 585.83 275.45C585.83 283.27 592.18 289.61 600 289.61C607.82 289.61 614.17 283.27 614.17 275.45Z" />
					<path id="&lt;Path&gt;" class="shp1" d="M627.79 252.76C627.79 255.58 625.5 257.86 622.69 257.86C619.87 257.86 617.59 255.58 617.59 252.76C617.59 249.94 619.87 247.66 622.69 247.66C625.5 247.66 627.79 249.94 627.79 252.76Z" />
				</g>
			</g>
		</g>
		<g id="FB Messenger">
			<path id="&lt;Path&gt;" class="shp1" d="M443.33 275.45C443.33 312.73 413.11 342.95 375.83 342.95C338.56 342.95 308.33 312.73 308.33 275.45C308.33 238.17 338.56 207.95 375.83 207.95C413.11 207.95 443.33 238.17 443.33 275.45Z" />
			<g id="&lt;Group&gt;">
				<g id="logo 1 ">
					<path id="bubble 1 " class="shp2" d="M426.83 274.92C426.83 303.34 404.56 324.39 375.83 324.39C370.67 324.39 365.72 323.7 361.07 322.43C360.17 322.18 359.21 322.25 358.35 322.63L348.23 327.09C345.58 328.26 342.59 326.38 342.5 323.49L342.22 314.41C342.19 313.3 341.68 312.25 340.85 311.51C330.93 302.63 324.83 289.78 324.83 274.92C324.83 246.49 347.11 225.45 375.83 225.45C404.56 225.45 426.83 246.49 426.83 274.92Z" />
					<path id="bolt 1 " class="shp1" d="M345.21 289.38L360.19 265.62C362.57 261.83 367.68 260.89 371.25 263.57L383.17 272.51C384.26 273.33 385.77 273.33 386.85 272.5L402.95 260.29C405.09 258.66 407.9 261.23 406.46 263.51L391.48 287.28C389.1 291.06 383.99 292 380.42 289.32L368.5 280.38C367.41 279.56 365.9 279.57 364.82 280.39L348.72 292.6C346.58 294.23 343.77 291.66 345.21 289.38Z" />
				</g>
			</g>
		</g>
		<g id="WhatsApp">
			<path id="&lt;Path&gt;" class="shp3" d="M891.66 275.45C891.66 312.73 861.44 342.95 824.16 342.95C786.89 342.95 756.66 312.73 756.66 275.45C756.66 238.17 786.89 207.95 824.16 207.95C861.44 207.95 891.66 238.17 891.66 275.45Z" />
			<g id="&lt;Group&gt;">
				<g id="WA Logo 2 ">
					<g id="&lt;Group&gt;">
						<path id="&lt;Compound Path&gt;" fill-rule="evenodd" class="shp1" d="M869.16 274.09C869.16 297.69 849.94 316.9 826.35 316.9C826.34 316.9 826.35 316.9 826.35 316.9L826.33 316.9C819.16 316.89 812.12 315.1 805.86 311.69L783.16 317.64L789.24 295.46C785.49 288.97 783.52 281.6 783.52 274.06C783.53 250.45 802.74 231.25 826.34 231.25C837.8 231.26 848.55 235.72 856.63 243.81C864.72 251.9 869.17 262.65 869.16 274.09ZM861.94 274.09C861.94 264.58 858.24 255.64 851.52 248.92C844.8 242.19 835.87 238.49 826.36 238.48C806.73 238.48 790.76 254.44 790.75 274.06C790.75 280.78 792.63 287.33 796.2 292.99L797.04 294.34L793.45 307.47L806.92 303.94L808.22 304.71C813.68 307.95 819.94 309.66 826.33 309.67L826.35 309.67C845.96 309.67 861.93 293.71 861.94 274.09ZM847.92 284.27C848.19 284.72 848.19 286.86 847.29 289.36C846.4 291.85 842.13 294.13 840.07 294.44C838.23 294.72 835.9 294.83 833.33 294.02C831.78 293.52 829.79 292.87 827.23 291.76C816.5 287.13 809.49 276.33 808.96 275.61C808.42 274.9 804.59 269.81 804.59 264.55C804.59 259.29 807.35 256.7 808.33 255.63C809.31 254.56 810.47 254.29 811.18 254.29C811.9 254.29 812.61 254.29 813.24 254.33C813.89 254.36 814.77 254.08 815.64 256.16C816.53 258.3 818.67 263.57 818.94 264.1C819.21 264.64 819.39 265.26 819.03 265.98C818.67 266.69 818.5 267.14 817.96 267.76C817.43 268.39 816.84 269.16 816.36 269.64C815.82 270.17 815.26 270.75 815.89 271.82C816.51 272.89 818.66 276.39 821.84 279.23C825.93 282.87 829.37 284 830.44 284.54C831.51 285.07 832.14 284.98 832.76 284.27C833.39 283.56 835.44 281.15 836.15 280.08C836.86 279.01 837.58 279.18 838.56 279.54C839.54 279.9 844.8 282.49 845.87 283.02C846.94 283.56 847.65 283.82 847.92 284.27Z" />
					</g>
				</g>
			</g>
		</g>
		<g id="Twitter">
			<path id="&lt;Path&gt;" class="shp4" d="M1115.83 275.45C1115.83 312.73 1085.61 342.95 1048.33 342.95C1011.05 342.95 980.83 312.73 980.83 275.45C980.83 238.17 1011.05 207.95 1048.33 207.95C1085.61 207.95 1115.83 238.17 1115.83 275.45Z" />
			<g id="&lt;Group&gt;">
				<g id="&lt;Group&gt;">
					<path id="&lt;Path&gt;" class="shp1" d="M1007.22 306.27C1008.62 306.44 1010.05 306.52 1011.49 306.52C1019.89 306.52 1027.62 303.65 1033.75 298.85C1025.91 298.7 1019.29 293.52 1017.01 286.4C1018.1 286.61 1019.22 286.72 1020.38 286.72C1022.01 286.72 1023.6 286.5 1025.1 286.09C1016.9 284.45 1010.72 277.2 1010.72 268.52C1010.72 268.44 1010.72 268.36 1010.73 268.29C1013.14 269.63 1015.91 270.44 1018.85 270.53C1014.03 267.32 1010.87 261.83 1010.87 255.61C1010.87 252.33 1011.76 249.25 1013.3 246.6C1022.14 257.45 1035.35 264.58 1050.24 265.33C1049.93 264.02 1049.78 262.65 1049.78 261.24C1049.78 251.35 1057.8 243.32 1067.7 243.32C1072.86 243.32 1077.51 245.5 1080.79 248.98C1084.87 248.18 1088.7 246.69 1092.17 244.63C1090.83 248.82 1087.99 252.33 1084.29 254.55C1087.91 254.11 1091.37 253.15 1094.58 251.73C1092.18 255.32 1089.14 258.48 1085.64 261.01C1085.67 261.78 1085.69 262.55 1085.69 263.32C1085.69 287.01 1067.66 314.32 1034.69 314.32C1024.57 314.32 1015.15 311.35 1007.22 306.27Z" />
				</g>
			</g>
		</g>
		<g id="Tumblr">
			<path id="&lt;Path&gt;" class="shp5" d="M891.66 668.55C891.66 705.83 861.44 736.05 824.16 736.05C786.89 736.05 756.66 705.83 756.66 668.55C756.66 631.27 786.89 601.05 824.16 601.05C861.44 601.05 891.66 631.27 891.66 668.55Z" />
			<g id="&lt;Group&gt;">
				<g id="&lt;Group&gt;">
					<path id="&lt;Path&gt;" class="shp1" d="M844.42 711.6L830.19 711.6C817.38 711.6 807.83 705.01 807.83 689.24L807.83 663.99L796.19 663.99L796.19 650.32C809 646.99 814.36 635.97 814.98 626.42L828.28 626.42L828.28 648.1L843.8 648.1L843.8 663.99L828.28 663.99L828.28 685.98C828.28 692.57 831.61 694.84 836.9 694.84L844.42 694.84L844.42 711.6Z" />
				</g>
			</g>
		</g>
		<g id="Pinterest">
			<g id="&lt;Group&gt;">
				<path id="&lt;Path&gt;" class="shp6" d="M219.17 472.52C219.17 509.83 188.92 540.08 151.61 540.08C144.61 540.08 137.94 539.02 131.6 537.07C134.38 532.57 138.49 525.23 139.99 519.34C140.55 517.22 141.96 511.87 144.22 503.27C146.39 507.49 152.84 511.05 159.68 511.05C180.03 511.05 194.71 492.31 194.71 469.02C194.71 446.67 176.47 429.98 153.06 429.98C123.87 429.98 108.41 449.56 108.41 470.85C108.41 480.8 113.69 493.09 122.15 497.04C123.42 497.65 124.15 497.37 124.43 496.15C124.65 495.2 125.82 490.59 126.32 488.48C126.48 487.81 126.43 487.2 125.87 486.53C123.09 483.14 120.87 476.91 120.87 471.13C120.87 456.23 132.15 441.83 151.39 441.83C168.02 441.83 179.64 453.11 179.64 469.29C179.64 487.53 170.41 500.21 158.4 500.21C151.78 500.21 146.78 494.7 148.39 487.98C150.34 479.91 154.01 471.24 154.01 465.46C154.01 460.29 151.22 455.95 145.44 455.95C138.66 455.95 133.21 462.96 133.21 472.35C133.21 476.32 133.88 479.66 135.21 482.36C130.76 501.23 128.13 512.42 127.32 515.94C125.98 521.78 126.48 530.01 127.09 535.35C101.96 525.51 84.17 501.04 84.17 472.41C84.17 435.1 114.42 404.85 151.73 404.85C189.03 404.85 219.28 435.1 219.17 472.52Z" />
			</g>
		</g>
		<g id="YouTube">
			<path id="&lt;Path&gt;" class="shp7" d="M667.5 472.46C667.5 509.74 637.28 539.96 600 539.96C562.72 539.96 532.5 509.74 532.5 472.46C532.5 435.18 562.72 404.96 600 404.96C637.28 404.96 667.5 435.18 667.5 472.46Z" />
			<path id="&lt;Compound Path&gt;" fill-rule="evenodd" class="shp1" d="M645 472.46C645 482.23 644.37 489.45 643.12 494.13C642.08 498 639.03 501.05 635.16 502.08C630.48 503.34 618.76 503.96 600 503.96C581.24 503.96 569.52 503.34 564.84 502.08C560.97 501.05 557.92 498 556.88 494.13C555.63 489.45 555 482.23 555 472.46C555 462.7 555.63 455.48 556.88 450.8C557.92 446.93 560.97 443.88 564.84 442.84C569.52 441.59 581.24 440.96 600 440.96C618.76 440.96 630.48 441.59 635.16 442.84C639.03 443.88 642.08 446.93 643.12 450.8C644.37 455.48 645 462.7 645 472.46ZM614.38 472.46L591 458.96L591 485.96L614.38 472.46Z" />
		</g>
		<g id="Tinder">
			<path id="&lt;Path&gt;" class="shp8" d="M1115.83 472.46C1115.83 509.74 1085.61 539.96 1048.33 539.96C1011.05 539.96 980.83 509.74 980.83 472.46C980.83 435.18 1011.05 404.96 1048.33 404.96C1085.61 404.96 1115.83 435.18 1115.83 472.46Z" />
			<g id="&lt;Group&gt;">
				<path id="&lt;Path&gt;" class="shp1" d="M1032.21 463.37C1050.15 457.19 1053.21 441.08 1050.92 426.27C1050.92 425.73 1051.37 425.35 1051.83 425.5C1069.01 433.9 1088.33 452.23 1088.33 479.71C1088.33 500.79 1071.99 519.42 1048.24 519.42C1027.18 520.38 1009.33 504.08 1008.37 483.02C1007.74 469.06 1014.77 455.88 1026.71 448.64C1027.17 448.33 1027.78 448.64 1027.78 449.17C1028.01 452 1028.77 459.1 1031.9 463.37C1032.11 463.37 1032.21 463.37 1032.21 463.37Z" />
			</g>
		</g>
		<g id="LinkedIn">
			<path id="&lt;Path&gt;" class="shp9" d="M891.66 472.46C891.66 509.74 861.44 539.96 824.16 539.96C786.89 539.96 756.66 509.74 756.66 472.46C756.66 435.18 786.89 404.96 824.16 404.96C861.44 404.96 891.66 435.18 891.66 472.46Z" />
			<g id="&lt;Group&gt;">
				<g id="&lt;Group&gt;">
					<path id="&lt;Path&gt;" class="shp10" d="M829.39 463.26C830.5 462.01 831.41 460.74 832.55 459.67C836.05 456.37 840.19 454.71 845.02 454.75C847.68 454.77 850.31 454.96 852.87 455.7C858.73 457.4 862.13 461.43 863.76 467.15C864.97 471.45 865.2 475.85 865.21 480.27C865.22 489.6 865.18 498.92 865.2 508.25C865.2 509.12 864.96 509.35 864.1 509.34C859.29 509.3 854.49 509.3 849.69 509.34C848.84 509.35 848.66 509.09 848.66 508.29C848.69 499.42 848.69 490.54 848.67 481.67C848.66 479.45 848.52 477.23 847.89 475.06C846.74 471.08 843.89 469.05 839.72 469.27C834.03 469.57 831.06 472.4 830.34 478.19C830.16 479.57 830.08 480.96 830.08 482.35C830.09 490.98 830.07 499.61 830.11 508.24C830.11 509.1 829.89 509.35 829.01 509.34C824.18 509.3 819.34 509.31 814.5 509.34C813.72 509.35 813.5 509.14 813.5 508.35C813.52 491.27 813.52 474.18 813.5 457.1C813.5 456.25 813.77 456.06 814.57 456.06C819.17 456.1 823.76 456.1 828.36 456.06C829.2 456.05 829.42 456.33 829.4 457.13C829.36 459.17 829.39 461.21 829.39 463.26Z" />
					<path id="&lt;Path&gt;" class="shp10" d="M803.07 482.78C803.07 491.23 803.05 499.68 803.09 508.13C803.09 509.07 802.86 509.36 801.89 509.35C797.08 509.29 792.28 509.31 787.48 509.34C786.71 509.34 786.48 509.15 786.48 508.36C786.5 491.25 786.5 474.13 786.48 457.02C786.48 456.31 786.66 456.06 787.41 456.07C792.28 456.1 797.15 456.11 802.02 456.06C802.96 456.05 803.08 456.41 803.08 457.22C803.06 465.74 803.07 474.26 803.07 482.78Z" />
					<path id="&lt;Path&gt;" class="shp10" d="M804.39 439.11C804.4 444.41 800.09 448.74 794.8 448.74C789.57 448.74 785.23 444.41 785.21 439.19C785.19 433.91 789.53 429.56 794.82 429.57C800.06 429.57 804.39 433.88 804.39 439.11Z" />
				</g>
			</g>
		</g>
		<g id="&lt;Group&gt;">
			<path id="&lt;Path&gt;" class="shp1" d="M219.17 1061.66C219.17 1098.93 188.95 1129.16 151.67 1129.16C114.39 1129.16 84.17 1098.93 84.17 1061.66C84.17 1024.38 114.39 994.16 151.67 994.16C188.95 994.16 219.17 1024.38 219.17 1061.66Z" />
			<g id="&lt;Group&gt;">
				<path id="&lt;Path&gt;" class="shp11" d="M104.63 1061.8C104.63 1050.2 114.03 1040.8 125.63 1040.8C137.22 1040.8 146.62 1050.2 146.62 1061.8C146.62 1073.39 137.22 1082.79 125.63 1082.79C114.03 1082.79 104.63 1073.39 104.63 1061.8Z" />
				<path id="&lt;Path&gt;" class="shp12" d="M156.82 1061.8C156.82 1050.2 166.22 1040.8 177.81 1040.8C189.4 1040.8 198.8 1050.2 198.8 1061.8C198.8 1073.39 189.4 1082.79 177.81 1082.79C166.22 1082.79 156.82 1073.39 156.82 1061.8Z" />
			</g>
		</g>
		<g id="Snapchat">
			<path id="&lt;Path&gt;" class="shp13" d="M667.5 668.55C667.5 705.83 637.28 736.05 600 736.05C562.72 736.05 532.5 705.83 532.5 668.55C532.5 631.27 562.72 601.05 600 601.05C637.28 601.05 667.5 631.27 667.5 668.55Z" />
			<g id="&lt;Group&gt;">
				<g id="&lt;Group&gt;">
					<path id="&lt;Path&gt;" class="shp0" d="M571.57 652.78C571.57 652.53 571.56 652.34 571.57 652.15C571.58 650.95 571.56 649.75 571.61 648.55C571.71 645.93 571.97 643.34 572.59 640.79C573.42 637.4 574.91 634.34 577.05 631.59C580.88 626.7 585.86 623.57 591.8 621.93C594.96 621.06 598.18 620.78 601.45 620.9C604.93 621.02 608.3 621.67 611.55 622.95C614.96 624.29 618.02 626.2 620.66 628.75C622.17 630.21 623.48 631.83 624.61 633.59C626.38 636.32 627.45 639.31 628.03 642.5C628.51 645.16 628.67 647.85 628.69 650.55C628.69 651.27 628.69 651.98 628.69 652.67C628.83 652.82 628.95 652.72 629.06 652.69C630.08 652.49 631.1 652.37 632.14 652.42C633.51 652.48 634.81 652.81 636.01 653.47C638.14 654.65 639.48 656.44 640.03 658.81C640.67 661.58 640.02 664.06 638.27 666.28C637.41 667.36 636.36 668.25 635.22 669.02C634.28 669.66 633.32 670.27 632.37 670.9C631.99 671.15 631.6 671.41 631.21 671.66C631.09 671.74 630.96 671.82 630.85 671.91C630.25 672.38 630.11 672.79 630.33 673.52C630.41 673.76 630.52 673.99 630.63 674.21C631.87 676.74 633.56 678.94 635.58 680.88C637.79 682.99 640.29 684.7 643 686.1C643.73 686.47 644.46 686.85 645.18 687.25C645.81 687.6 646.39 688.02 646.9 688.53C647.95 689.6 648.53 690.88 648.61 692.37C648.68 693.65 648.3 694.83 647.61 695.9C646.85 697.07 645.86 698.01 644.67 698.73C643.72 699.31 642.72 699.8 641.69 700.24C640.62 700.7 639.53 701.07 638.41 701.39C638.03 701.5 637.65 701.63 637.28 701.78C636.85 701.94 636.54 702.25 636.35 702.67C636.24 702.92 636.13 703.18 636.03 703.43C635.09 705.88 633.31 707.37 630.76 707.97C629.82 708.2 628.85 708.28 627.88 708.33C626.81 708.39 625.73 708.41 624.66 708.48C622.95 708.59 621.27 708.88 619.64 709.4C618.93 709.62 618.26 709.93 617.63 710.3C616.77 710.8 615.92 711.31 615.08 711.83C613.6 712.73 612.09 713.57 610.5 714.25C608.28 715.19 605.97 715.81 603.57 716.09C601.46 716.34 599.36 716.37 597.25 716.16C594.03 715.84 590.98 714.93 588.1 713.45C586.92 712.84 585.78 712.16 584.65 711.46C584.17 711.17 583.67 710.88 583.19 710.58C581.76 709.68 580.19 709.17 578.54 708.85C576.88 708.52 575.2 708.41 573.51 708.36C572.4 708.32 571.28 708.27 570.18 708.09C569.34 707.96 568.54 707.72 567.77 707.35C566.19 706.57 565.07 705.36 564.38 703.75C564.25 703.44 564.13 703.12 564.01 702.81C563.8 702.26 563.42 701.89 562.87 701.7C562.53 701.59 562.19 701.48 561.85 701.38C559.89 700.82 558.02 700.08 556.24 699.1C555.07 698.45 554.02 697.64 553.18 696.59C552.58 695.84 552.1 695.02 551.87 694.09C551.37 692.08 551.84 690.29 553.19 688.74C553.64 688.22 554.18 687.82 554.75 687.46C555.36 687.07 555.99 686.74 556.64 686.43C558.95 685.28 561.12 683.92 563.12 682.28C565.47 680.35 567.46 678.11 568.98 675.46C569.25 674.98 569.48 674.49 569.74 674C569.89 673.72 569.97 673.41 570.01 673.1C570.06 672.77 569.97 672.48 569.75 672.22C569.53 671.99 569.27 671.81 569.01 671.63C567.74 670.8 566.47 669.97 565.2 669.14C564.39 668.6 563.63 668 562.93 667.32C561.88 666.3 561.04 665.12 560.52 663.73C559.36 660.63 560.13 657.05 562.45 654.79C563.72 653.56 565.24 652.84 566.96 652.54C568.31 652.32 569.65 652.37 570.98 652.66C571.15 652.7 571.31 652.73 571.57 652.78Z" />
					<path id="&lt;Path&gt;" class="shp1" d="M623.25 652.67C623.23 654.53 623.14 656.38 623 658.23C622.98 658.55 622.97 658.86 622.96 659.18C622.95 659.87 623.35 660.15 624.03 660.09C624.28 660.06 624.53 660 624.77 659.91C625.44 659.68 626.11 659.43 626.78 659.17C627.9 658.74 629.02 658.32 630.19 658.05C630.98 657.86 631.77 657.77 632.57 657.95C634.39 658.37 635.33 660.18 634.63 661.91C634.45 662.37 634.17 662.76 633.84 663.13C633.38 663.65 632.84 664.09 632.26 664.48C631.58 664.94 630.9 665.39 630.21 665.84C629.07 666.6 627.92 667.34 626.78 668.11C626.31 668.42 625.85 668.76 625.4 669.1C625.15 669.3 624.92 669.52 624.71 669.75C624.28 670.23 624.08 670.79 624.12 671.43C624.16 672.05 624.27 672.64 624.44 673.23C624.98 675.13 625.81 676.9 626.82 678.59C628.68 681.69 631.08 684.33 633.88 686.62C636.26 688.55 638.86 690.15 641.61 691.5C641.86 691.62 642.1 691.75 642.33 691.89C642.52 692 642.67 692.14 642.79 692.32C642.98 692.58 643 692.86 642.85 693.15C642.71 693.39 642.52 693.58 642.31 693.76C642 694.02 641.65 694.21 641.3 694.41C639.73 695.26 638.08 695.86 636.36 696.32C635.63 696.52 634.9 696.73 634.18 696.94C633.67 697.09 633.2 697.31 632.73 697.56C631.94 697.97 631.49 698.62 631.32 699.47C631.23 699.95 631.17 700.43 631.09 700.91C630.87 702.11 630.44 702.55 629.26 702.75C628.85 702.82 628.42 702.87 628 702.89C626.95 702.95 625.9 702.98 624.85 703.03C622.46 703.17 620.11 703.54 617.84 704.28C616.87 704.6 615.95 705.01 615.07 705.51C614.14 706.05 613.22 706.6 612.3 707.16C610.84 708.04 609.36 708.88 607.76 709.5C605.98 710.19 604.14 710.6 602.24 710.77C600.64 710.92 599.04 710.9 597.45 710.72C595.06 710.45 592.79 709.75 590.65 708.66C589.66 708.15 588.7 707.58 587.75 707C587.05 706.57 586.34 706.15 585.64 705.73C583.95 704.73 582.13 704.08 580.23 703.67C578.5 703.29 576.74 703.08 574.97 703.01C574.04 702.98 573.11 702.94 572.19 702.88C571.66 702.85 571.14 702.79 570.63 702.65C569.91 702.46 569.45 702.03 569.3 701.29C569.22 700.87 569.15 700.46 569.08 700.04C569.07 699.96 569.06 699.88 569.05 699.79C568.9 698.69 568.35 697.88 567.31 697.41C566.68 697.12 566.03 696.89 565.36 696.7C564.2 696.38 563.03 696.1 561.9 695.69C560.91 695.34 559.95 694.92 559.02 694.41C558.74 694.26 558.47 694.09 558.21 693.92C558.04 693.8 557.87 693.66 557.73 693.51C557.19 692.95 557.24 692.44 557.85 691.96C558.16 691.73 558.5 691.57 558.84 691.41C561.25 690.23 563.54 688.84 565.66 687.2C568.7 684.87 571.3 682.13 573.31 678.85C574.38 677.11 575.26 675.27 575.83 673.29C576.01 672.66 576.14 672.02 576.16 671.36C576.19 670.72 575.97 670.17 575.54 669.7C575.28 669.41 574.99 669.17 574.69 668.94C573.81 668.29 572.89 667.68 571.98 667.08C570.81 666.32 569.65 665.56 568.48 664.8C567.9 664.42 567.34 664.01 566.83 663.53C566.47 663.18 566.14 662.8 565.87 662.36C565.32 661.44 565.28 660.49 565.7 659.52C565.99 658.84 566.48 658.38 567.16 658.11C567.91 657.82 568.68 657.79 569.47 657.92C570.38 658.08 571.27 658.36 572.14 658.67C573.03 659 573.91 659.34 574.8 659.68C575.21 659.83 575.62 659.99 576.06 660.05C576.17 660.07 576.27 660.1 576.38 660.1C576.89 660.08 577.31 659.92 577.3 659.23C577.3 658.66 577.27 658.09 577.24 657.53C577.03 654.45 576.95 651.38 577.07 648.3C577.15 646.34 577.36 644.39 577.79 642.47C578.4 639.81 579.51 637.38 581.17 635.19C584.22 631.16 588.26 628.6 593.09 627.24C595.73 626.5 598.42 626.25 601.16 626.34C604.05 626.43 606.85 626.96 609.54 628.01C612.1 629.01 614.44 630.38 616.45 632.25C618.99 634.62 620.94 637.38 622 640.72C622.48 642.23 622.78 643.78 622.97 645.35C623.26 647.78 623.27 650.23 623.25 652.67Z" />
				</g>
			</g>
		</g>
		<g id="&lt;Group&gt;">
			<path id="&lt;Path&gt;" class="shp14" d="M219.17 864.64C219.17 901.92 188.95 932.14 151.67 932.14C114.39 932.14 84.17 901.92 84.17 864.64C84.17 827.36 114.39 797.14 151.67 797.14C188.95 797.14 219.17 827.36 219.17 864.64Z" />
			<g id="&lt;Group&gt;">
				<g id="&lt;Group&gt;">
					<path id="&lt;Compound Path&gt;" fill-rule="evenodd" class="shp1" d="M200.17 874.67C200.17 875.89 200.17 877.1 200.17 878.31C199.91 879.64 199.73 880.99 199.37 882.29C197.96 887.36 194.99 891.38 190.96 894.68C190.39 895.14 189.83 895.61 189.22 896.01C188.76 896.31 188.75 896.59 188.91 897.08C189.71 899.49 190.48 901.92 191.25 904.34C191.3 904.48 191.33 904.62 191.42 904.92C190.46 904.42 189.65 903.98 188.84 903.55C186.67 902.42 184.51 901.26 182.32 900.18C181.97 900 181.44 899.99 181.03 900.1C176.61 901.24 172.13 901.97 167.55 901.49C157.89 900.46 149.75 896.63 144.33 888.25C138.87 879.83 139.84 869.25 146.5 861.73C151.41 856.18 157.63 853.03 164.85 851.85C172.9 850.53 180.55 851.8 187.61 855.97C193 859.16 197 863.6 199.02 869.61C199.52 871.08 199.7 872.65 200.03 874.18C200.07 874.34 200.12 874.51 200.17 874.67ZM165.5 868.38C165.5 866.18 163.72 864.4 161.52 864.4C159.32 864.4 157.54 866.18 157.54 868.38C157.54 870.57 159.32 872.35 161.52 872.35C163.72 872.35 165.5 870.57 165.5 868.38ZM184.88 868.38C184.88 866.18 183.1 864.4 180.9 864.4C178.7 864.4 176.92 866.18 176.92 868.38C176.92 870.57 178.7 872.35 180.9 872.35C183.1 872.35 184.88 870.57 184.88 868.38Z" />
					<path id="&lt;Compound Path&gt;" fill-rule="evenodd" class="shp1" d="M139.93 883.42C140.03 883.73 140.11 884.04 140.24 884.5C139.56 884.5 138.96 884.51 138.37 884.5C134.29 884.41 130.27 883.84 126.37 882.63C125.74 882.43 125.25 882.49 124.67 882.8C121.39 884.59 118.09 886.33 114.8 888.08C114.49 888.25 114.17 888.41 113.63 888.69C114.82 885.12 115.95 881.76 117.04 878.5C115.29 877.01 113.5 875.64 111.89 874.09C107.38 869.74 104.44 864.51 103.48 858.27C102.49 851.83 103.87 845.85 107.35 840.4C111.94 833.18 118.59 828.62 126.7 826.2C137 823.14 147.11 823.82 156.72 828.69C164.56 832.66 170.25 838.71 172.96 847.27C173.16 847.92 173.31 848.58 173.47 849.24C173.49 849.31 173.47 849.39 173.46 849.5C172.96 849.5 172.45 849.51 171.95 849.5C164.06 849.33 156.72 851.14 150.25 855.78C144.84 859.66 141 864.7 139.51 871.3C138.58 875.36 138.76 879.42 139.93 883.42ZM145.73 843.9C145.73 846.65 147.96 848.89 150.72 848.89C153.47 848.89 155.71 846.65 155.71 843.9C155.71 841.14 153.47 838.91 150.72 838.91C147.96 838.91 145.73 841.14 145.73 843.9ZM131.4 843.9C131.4 841.14 129.17 838.91 126.41 838.91C123.66 838.91 121.42 841.14 121.42 843.9C121.42 846.65 123.66 848.89 126.41 848.89C129.17 848.89 131.4 846.65 131.4 843.9Z" />
				</g>
			</g>
		</g>
		<g id="Telegram">
			<g id="&lt;Group&gt;">
				<path id="&lt;Path&gt;" class="shp15" d="M375.83 1129.16C338.56 1129.16 308.33 1098.93 308.33 1061.66C308.33 1024.38 338.56 994.16 375.83 994.16C413.11 994.16 443.33 1024.38 443.33 1061.66C443.33 1098.93 413.11 1129.16 375.83 1129.16Z" />
				<path id="&lt;Path&gt;" class="shp16" d="M354.31 1060.87L398.86 1039.99L381.13 1074.24C370.5 1085.3 364.82 1090.83 364.11 1090.83C363.39 1090.83 362.7 1090.14 362.03 1088.76L354.03 1066.59L354.31 1060.87Z" />
				<path id="&lt;Path&gt;" class="shp17" d="M377.26 1079.75C374.07 1082.32 370.81 1085.28 367.47 1088.61C364.13 1091.95 362.68 1091.95 363.11 1088.61L364.64 1072.27L377.26 1079.75Z" />
				<g id="&lt;Group&gt;">
					<path id="&lt;Path&gt;" class="shp1" d="M354.17 1067.38L337.7 1062.01C336.39 1061.48 335.94 1060.61 336.36 1059.4C336.49 1059.03 336.76 1058.71 337.54 1058.16C339.98 1056.47 362.5 1047.96 405.1 1032.65C406.31 1032.24 407.26 1032.18 407.97 1032.44C408.46 1032.63 408.77 1032.84 409.04 1033.6C409.13 1033.88 409.19 1034.47 409.18 1035.05C409.17 1035.48 409.12 1035.87 409.08 1036.48C408.82 1040.67 404.81 1058.39 397.05 1089.64C396.58 1091.47 395.52 1092.41 393.85 1092.47C392.94 1092.51 391.84 1092.32 390.52 1091.19C385.62 1086.97 368.68 1075.59 364.94 1073.09C364.73 1072.95 364.67 1072.76 364.63 1072.58C364.6 1072.41 364.68 1072.21 364.87 1071.99C384.53 1054.52 394.62 1044.86 395.14 1043.03C395.2 1042.82 394.97 1042.71 394.66 1042.8C392.71 1043.52 358.75 1064.96 355 1067.33C354.86 1067.42 354.58 1067.44 354.17 1067.38Z" />
				</g>
			</g>
		</g>
		<g id="Reddit">
			<g id="&lt;Group&gt;">
				<path id="&lt;Path&gt;" class="shp18" d="M891.66 864.64C891.66 901.92 861.44 932.14 824.16 932.14C786.89 932.14 756.66 901.92 756.66 864.64C756.66 827.36 786.89 797.14 824.16 797.14C861.44 797.14 891.66 827.36 891.66 864.64Z" />
				<path id="&lt;Compound Path&gt;" fill-rule="evenodd" class="shp1" d="M863.3 873.63C863.45 874.6 863.53 875.59 863.53 876.59C863.53 891.73 845.9 904.01 824.15 904.01C802.41 904.01 784.78 891.73 784.78 876.59C784.78 875.58 784.86 874.59 785.01 873.61C781.59 872.07 779.2 868.64 779.2 864.64C779.2 859.2 783.61 854.79 789.04 854.79C791.69 854.79 794.08 855.84 795.85 857.54C802.66 852.63 812.08 849.49 822.56 849.2L827.57 825.66C827.67 825.2 827.94 824.8 828.33 824.55C828.72 824.29 829.2 824.2 829.65 824.3L846.01 827.78C847.16 825.46 849.53 823.86 852.29 823.86C856.17 823.86 859.32 827 859.32 830.89C859.32 834.77 856.17 837.92 852.29 837.92C848.52 837.92 845.47 834.95 845.29 831.22L830.64 828.11L826.16 849.2C836.48 849.56 845.75 852.7 852.48 857.56C854.25 855.85 856.66 854.79 859.31 854.79C864.75 854.79 869.15 859.2 869.15 864.64C869.15 868.65 866.75 872.1 863.3 873.63ZM808.7 878.7C812.57 878.7 815.73 875.54 815.73 871.67C815.73 867.79 812.57 864.64 808.7 864.64C804.82 864.64 801.66 867.79 801.66 871.67C801.66 875.54 804.82 878.7 808.7 878.7ZM840.87 887.67C840.16 886.96 839.01 886.96 838.3 887.67C835.27 890.7 828.79 891.77 824.17 891.77C819.55 891.77 813.08 890.7 810.06 887.67C809.34 886.96 808.19 886.96 807.48 887.67C806.77 888.38 806.77 889.54 807.48 890.25C812.27 895.04 821.47 895.41 824.17 895.41C826.88 895.41 836.07 895.04 840.87 890.25C841.58 889.54 841.58 888.38 840.87 887.67ZM846.66 871.67C846.66 867.79 843.51 864.64 839.63 864.64C835.76 864.64 832.6 867.79 832.6 871.67C832.6 875.55 835.76 878.7 839.63 878.7C843.51 878.7 846.66 875.55 846.66 871.67Z" />
			</g>
		</g>
		<g id="Twitch">
			<path id="&lt;Path&gt;" class="shp19" d="M443.33 864.64C443.33 901.92 413.11 932.14 375.83 932.14C338.56 932.14 308.33 901.92 308.33 864.64C308.33 827.36 338.56 797.14 375.83 797.14C413.11 797.14 443.33 827.36 443.33 864.64Z" />
			<g id="&lt;Group&gt;">
				<g id="&lt;Group&gt;">
					<path id="&lt;Path&gt;" class="shp1" d="M409.17 866.3L395.83 879.64L382.5 879.64L370.83 891.3L370.83 879.64L355.83 879.64L355.83 829.64L409.17 829.64L409.17 866.3Z" />
					<g id="&lt;Group&gt;">
						<g id="Layer 1-2 2 ">
							<path id="&lt;Compound Path&gt;" fill-rule="evenodd" class="shp0" d="M415.83 822.97L415.83 869.64L385.83 899.64L372.5 899.64L355.83 916.3L355.83 899.64L335.83 899.64L335.83 839.64L352.5 822.97L415.83 822.97ZM409.17 829.64L355.83 829.64L355.83 879.64L370.83 879.64L370.83 891.3L382.5 879.64L395.83 879.64L409.17 866.3L409.17 829.64Z" />
							<path id="&lt;Path&gt;" class="shp0" d="M392.5 841.3L399.17 841.3L399.17 861.3L392.5 861.3L392.5 841.3Z" />
							<path id="&lt;Path&gt;" class="shp0" d="M374.17 841.3L380.83 841.3L380.83 861.3L374.17 861.3L374.17 841.3Z" />
						</g>
					</g>
				</g>
			</g>
		</g>
		<g id="&lt;Group&gt;">
			<path id="&lt;Path&gt;" class="shp1" d="M1115.83 864.64C1115.83 901.92 1085.61 932.14 1048.33 932.14C1011.05 932.14 980.83 901.92 980.83 864.64C980.83 827.36 1011.05 797.14 1048.33 797.14C1085.61 797.14 1115.83 827.36 1115.83 864.64Z" />
			<g id="&lt;Group&gt;">
				<g id="&lt;Group&gt;">
					<path id="&lt;Path&gt;" class="shp20" d="M1048.33 816.64C1074.84 816.64 1096.33 838.13 1096.33 864.64C1096.33 891.15 1074.84 912.64 1048.33 912.64C1021.82 912.64 1000.33 891.15 1000.33 864.64C1000.33 838.13 1021.82 816.64 1048.33 816.64Z" />
					<path id="&lt;Compound Path&gt;" fill-rule="evenodd" class="shp21" d="M1098.33 864.64C1098.33 892.24 1075.88 914.64 1048.33 914.64C1020.73 914.64 998.33 892.24 998.33 864.64C998.33 837.03 1020.73 814.64 1048.33 814.64C1075.88 814.64 1098.33 837.03 1098.33 864.64ZM1057.55 854.5C1058.53 856.5 1059.5 858.62 1060.37 860.68C1060.69 861.44 1060.97 862.2 1061.29 862.9C1075.5 861.11 1089.6 863.99 1091.01 864.26C1090.9 854.22 1087.32 844.95 1081.36 837.68C1080.43 838.88 1073.28 848.1 1057.55 854.5ZM1038.3 823.15C1039.49 824.78 1047.25 835.3 1054.24 848.15C1069.43 842.46 1075.88 833.83 1076.64 832.75C1069.1 826.08 1059.18 822.01 1048.33 822.01C1044.86 822.01 1041.5 822.39 1038.3 823.15ZM1006.52 855.91C1008.42 855.91 1026.04 856.01 1046 850.7C1038.89 838.12 1031.3 827.54 1030.16 826.03C1018.23 831.67 1009.28 842.67 1006.52 855.91ZM1016.55 893.22C1017.53 891.59 1029.24 872.17 1051.26 865.07C1051.8 864.91 1052.4 864.75 1052.94 864.58C1051.85 862.14 1050.72 859.7 1049.47 857.32C1028.16 863.72 1007.44 863.44 1005.6 863.39C1005.6 863.82 1005.6 864.26 1005.6 864.69C1005.6 875.65 1009.77 885.68 1016.55 893.22ZM1065.03 903.95C1064.38 900.21 1061.94 887.14 1055.92 871.58C1055.81 871.63 1055.76 871.63 1055.65 871.69C1031.57 880.09 1022.9 896.8 1022.14 898.37C1029.35 904.01 1038.46 907.37 1048.33 907.37C1054.24 907.37 1059.88 906.18 1065.03 903.95ZM1090.41 871.47C1088.95 870.98 1077.23 867.51 1063.84 869.63C1069.43 884.97 1071.7 897.45 1072.14 900.05C1081.74 893.6 1088.57 883.35 1090.41 871.47Z" />
				</g>
			</g>
		</g>
		<g id="&lt;Group&gt;">
			<path id="&lt;Path&gt;" class="shp0" d="M891.66 1061.66C891.66 1098.93 861.44 1129.16 824.16 1129.16C786.89 1129.16 756.66 1098.93 756.66 1061.66C756.66 1024.38 786.89 994.16 824.16 994.16C861.44 994.16 891.66 1024.38 891.66 1061.66Z" />
			<g id="&lt;Group&gt;">
				<g id="&lt;Group&gt;">
					<g id="&lt;Group&gt;">
						<path id="&lt;Compound Path&gt;" fill-rule="evenodd" class="shp1" d="M805.85 1032.83C808.55 1032.83 810.99 1033.06 813.23 1033.55C815.45 1034.02 817.34 1034.8 818.94 1035.88C820.52 1036.96 821.75 1038.39 822.64 1040.2C823.5 1041.98 823.93 1044.2 823.93 1046.84C823.93 1049.69 823.29 1052.07 821.99 1053.97C820.69 1055.87 818.78 1057.42 816.22 1058.64C819.7 1059.64 822.28 1061.4 823.99 1063.9C825.71 1066.43 826.55 1069.45 826.55 1072.99C826.55 1075.86 826 1078.33 824.9 1080.41C823.8 1082.51 822.29 1084.22 820.43 1085.53C818.55 1086.86 816.4 1087.83 813.99 1088.47C811.61 1089.1 809.13 1089.42 806.59 1089.42L779.16 1089.42L779.16 1032.83L805.85 1032.83ZM804.23 1055.69C806.44 1055.69 808.27 1055.17 809.72 1054.1C811.15 1053.06 811.84 1051.33 811.84 1048.96C811.84 1047.64 811.61 1046.55 811.15 1045.71C810.67 1044.87 810.03 1044.2 809.23 1043.74C808.43 1043.26 807.53 1042.93 806.49 1042.75C805.46 1042.55 804.38 1042.47 803.28 1042.47L791.63 1042.47L791.63 1055.69L804.23 1055.69ZM804.92 1079.78C806.15 1079.78 807.32 1079.67 808.42 1079.42C809.53 1079.18 810.52 1078.8 811.35 1078.22C812.18 1077.68 812.88 1076.92 813.38 1075.97C813.88 1075.02 814.12 1073.79 814.12 1072.3C814.12 1069.38 813.3 1067.31 811.67 1066.05C810.03 1064.82 807.85 1064.2 805.17 1064.2L791.63 1064.2L791.63 1079.78L804.92 1079.78Z" />
						<path id="&lt;Compound Path&gt;" fill-rule="evenodd" class="shp1" d="M844.31 1079.59C846 1081.24 848.43 1082.07 851.59 1082.07C853.86 1082.07 855.82 1081.49 857.47 1080.35C859.1 1079.21 860.09 1077.99 860.48 1076.72L870.39 1076.72C868.79 1081.65 866.38 1085.17 863.08 1087.29C859.82 1089.42 855.85 1090.48 851.21 1090.48C847.99 1090.48 845.08 1089.96 842.47 1088.93C839.87 1087.89 837.69 1086.43 835.86 1084.52C834.07 1082.61 832.68 1080.35 831.7 1077.69C830.72 1075.05 830.23 1072.13 830.23 1068.96C830.23 1065.9 830.74 1063.03 831.74 1060.39C832.76 1057.74 834.17 1055.44 836.03 1053.52C837.89 1051.59 840.1 1050.07 842.67 1048.95C845.24 1047.84 848.08 1047.28 851.21 1047.28C854.68 1047.28 857.72 1047.95 860.32 1049.31C862.91 1050.65 865.04 1052.47 866.71 1054.74C868.38 1057.01 869.57 1059.61 870.31 1062.52C871.05 1065.42 871.31 1068.46 871.09 1071.64L841.53 1071.64C841.53 1074.88 842.62 1077.95 844.31 1079.59ZM857.24 1058.06C855.91 1056.59 853.64 1055.78 850.88 1055.78C849.08 1055.78 847.59 1056.09 846.4 1056.7C845.23 1057.31 844.28 1058.07 843.55 1058.96C842.82 1059.87 842.33 1060.82 842.04 1061.85C841.75 1062.84 841.58 1063.75 841.53 1064.55L859.84 1064.55C859.57 1061.68 858.59 1059.56 857.24 1058.06Z" />
						<path id="&lt;Path&gt;" class="shp1" d="M862.16 1036.62L862.16 1042.21L839.22 1042.21L839.22 1036.62L862.16 1036.62Z" />
					</g>
				</g>
			</g>
		</g>
		<g id="Vimeo">
			<path id="&lt;Path&gt;" class="shp22" d="M443.33 668.55C443.33 705.83 413.11 736.05 375.83 736.05C338.56 736.05 308.33 705.83 308.33 668.55C308.33 631.27 338.56 601.05 375.83 601.05C413.11 601.05 443.33 631.27 443.33 668.55Z" />
			<g id="&lt;Group&gt;">
				<g id="&lt;Group&gt;">
					<g id="&lt;Group&gt;">
						<path id="&lt;Compound Path&gt;" class="shp1" d="M419.44 651.41C419.04 660.26 412.85 672.39 400.89 687.78C388.51 703.86 378.04 711.9 369.48 711.9C364.18 711.9 359.69 707.01 356.02 697.21C353.57 688.24 351.13 679.26 348.68 670.28C345.96 660.5 343.04 655.6 339.91 655.6C339.23 655.6 336.85 657.03 332.77 659.88L328.49 654.37C332.98 650.42 337.41 646.48 341.77 642.53C347.76 637.35 352.26 634.63 355.25 634.36C362.33 633.67 366.69 638.51 368.33 648.87C370.1 660.05 371.32 667.01 372.01 669.73C374.05 679 376.3 683.64 378.75 683.64C380.65 683.64 383.52 680.63 387.33 674.61C391.14 668.59 393.18 664.02 393.46 660.87C394 655.68 391.96 653.08 387.33 653.08C385.15 653.08 382.91 653.58 380.6 654.57C385.07 639.92 393.61 632.81 406.22 633.22C415.58 633.49 419.98 639.55 419.44 651.41Z" />
					</g>
				</g>
			</g>
		</g>
		<g id="Soundcloud">
			<path id="&lt;Path&gt;" class="shp23" d="M667.5 1061.66C667.5 1098.93 637.28 1129.16 600 1129.16C562.72 1129.16 532.5 1098.93 532.5 1061.66C532.5 1024.38 562.72 994.16 600 994.16C637.28 994.16 667.5 1024.38 667.5 1061.66Z" />
			<g id="&lt;Group&gt;">
				<path id="&lt;Compound Path&gt;" class="shp24" d="M545.52 1061.27C545.75 1061.27 545.87 1061.38 545.87 1061.61L546.89 1067.76L545.87 1073.9C545.87 1074.13 545.75 1074.24 545.52 1074.24C545.3 1074.24 545.18 1074.13 545.18 1073.9L544.5 1067.76L545.18 1061.61C545.18 1061.38 545.3 1061.27 545.52 1061.27ZM549.62 1057.51C549.85 1057.51 549.96 1057.62 549.96 1057.85L551.33 1067.76L549.96 1077.66C549.96 1077.89 549.85 1078 549.62 1078C549.4 1078 549.28 1077.89 549.28 1077.66L548.26 1067.76L549.28 1057.85L549.62 1057.51ZM563.28 1055.8C563.63 1055.8 563.97 1056.14 563.97 1056.48L564.99 1067.76L563.63 1079.71C563.63 1080.05 563.28 1080.39 562.94 1080.39C562.6 1080.39 562.26 1080.05 562.26 1079.71L561.58 1067.76L562.26 1056.48C562.26 1056.14 562.6 1055.8 563.28 1055.8ZM554.06 1055.12C554.4 1055.12 554.75 1055.46 554.75 1055.8L555.77 1067.76L554.75 1079.03C554.75 1079.25 554.63 1079.48 554.4 1079.71C554.06 1079.71 553.72 1079.37 553.72 1079.03L552.7 1067.76L553.72 1055.8C553.72 1055.46 554.06 1055.46 554.06 1055.12ZM558.5 1054.78C558.84 1054.78 559.19 1055.12 559.19 1055.46L560.21 1067.76L559.19 1079.37C559.19 1079.71 558.84 1080.05 558.5 1080.05C558.16 1080.05 557.82 1079.71 557.82 1079.37L556.8 1067.76L557.82 1055.46C558.16 1055.12 558.16 1054.78 558.5 1054.78ZM567.72 1048.63C568.07 1048.63 568.41 1048.97 568.41 1049.31L569.43 1067.76L568.41 1079.71C568.41 1080.05 568.07 1080.39 567.38 1080.39C567.04 1080.39 566.7 1080.05 566.7 1079.71L565.68 1067.76L566.7 1049.31C566.7 1048.97 567.04 1048.63 567.72 1048.63ZM572.16 1044.19C572.85 1044.19 573.19 1044.53 573.19 1045.21L574.21 1067.76L573.19 1079.71C573.19 1080.39 572.51 1080.73 572.16 1080.73C571.48 1080.73 571.14 1080.39 571.14 1079.71L570.46 1067.76L571.14 1045.21C571.14 1044.53 571.48 1044.19 572.16 1044.19ZM590.61 1042.48C591.29 1042.48 591.97 1043.16 591.97 1043.85L592.66 1067.76L591.97 1079.03C591.97 1079.71 591.29 1080.39 590.61 1080.39C589.92 1080.39 589.24 1079.71 589.24 1079.03L588.56 1067.76L589.24 1044.19C589.24 1043.16 589.58 1042.82 590.61 1042.48ZM576.6 1042.14C577.29 1042.14 577.63 1042.48 577.63 1043.16L578.31 1067.76L577.63 1079.37C577.63 1080.05 577.29 1080.39 576.6 1080.39C575.92 1080.39 575.58 1080.05 575.58 1079.37L574.9 1067.76L575.58 1043.16C575.58 1042.82 575.92 1042.14 576.6 1042.14ZM585.83 1041.8C586.51 1041.8 587.19 1042.48 587.19 1043.16L587.88 1067.76L587.19 1079.37C587.19 1080.05 586.51 1080.73 585.83 1080.73C585.14 1080.73 584.46 1080.05 584.46 1079.37L583.78 1067.76L584.46 1043.16C584.46 1042.48 585.14 1041.8 585.83 1041.8ZM581.04 1041.46C581.39 1041.46 582.07 1041.8 582.07 1042.48L582.75 1067.76L582.07 1079.37C582.07 1080.05 581.73 1080.39 581.04 1080.39C580.36 1080.39 580.02 1080.05 580.02 1079.37L579.34 1067.76L580.02 1042.48C580.02 1041.8 580.7 1041.46 581.04 1041.46ZM595.05 1038.04C595.73 1038.04 596.41 1038.72 596.41 1039.41L597.1 1067.76L596.41 1079.03C596.41 1079.71 595.73 1080.39 595.05 1080.39C594.36 1080.39 593.68 1079.71 593.68 1079.03L593 1067.76L593.68 1039.41C593.68 1038.72 594.36 1038.04 595.05 1038.04ZM599.49 1035.65L599.83 1035.65C600.51 1035.65 601.2 1036.33 601.2 1037.02L601.88 1067.76L601.2 1079.03C601.2 1079.71 600.51 1080.39 599.83 1080.39C599.15 1080.39 598.46 1079.71 598.46 1079.03L597.78 1067.76L598.46 1037.02C598.46 1036.33 598.8 1035.65 599.49 1035.65ZM611.1 1032.58C611.78 1032.58 612.12 1032.58 612.81 1032.58C625.44 1032.58 635.69 1042.14 636.72 1054.44C638.08 1053.75 640.13 1053.41 641.84 1053.41C649.35 1053.41 655.5 1059.56 655.5 1067.07C655.5 1074.59 649.35 1080.73 641.84 1080.73L603.93 1080.73C603.24 1080.39 602.56 1079.71 602.56 1079.03L602.56 1035.65C602.56 1034.63 602.9 1034.28 603.93 1033.94C606.32 1033.26 608.71 1032.58 611.1 1032.58Z" />
			</g>
		</g>
		<g id="KakaoTalk">
			<path id="&lt;Path&gt;" class="shp25" d="M1115.83 1061.66C1115.83 1098.93 1085.61 1129.16 1048.33 1129.16C1011.05 1129.16 980.83 1098.93 980.83 1061.66C980.83 1024.38 1011.05 994.16 1048.33 994.16C1085.61 994.16 1115.83 1024.38 1115.83 1061.66Z" />
			<g id="&lt;Group&gt;">
				<g id="&lt;Group&gt;">
					<path id="&lt;Path&gt;" class="shp0" d="M1048.97 1096.12C1046.11 1096.14 1043.26 1096.01 1040.43 1095.6C1040 1095.54 1039.66 1095.63 1039.3 1095.88C1033.68 1099.82 1028.07 1103.77 1022.27 1107.45C1021.56 1107.89 1020.83 1108.29 1020.1 1108.7C1019.84 1108.85 1019.57 1108.95 1019.27 1108.99C1018.34 1109.11 1017.8 1108.57 1017.99 1107.64C1018.34 1106.03 1018.82 1104.45 1019.27 1102.86C1020.42 1098.85 1021.56 1094.83 1022.72 1090.83C1022.82 1090.47 1022.79 1090.31 1022.42 1090.12C1016.95 1087.35 1012.13 1083.74 1008.19 1079.01C1004.29 1074.33 1001.67 1069.05 1000.73 1063C999.66 1056.1 1000.88 1049.57 1004.21 1043.44C1007.48 1037.43 1012.18 1032.78 1017.86 1029.09C1023.93 1025.14 1030.59 1022.69 1037.69 1021.41C1042.98 1020.45 1048.31 1020.22 1053.66 1020.71C1063.73 1021.62 1073.02 1024.73 1081.21 1030.77C1086.65 1034.78 1091.02 1039.72 1093.69 1045.99C1097.94 1056.02 1097.05 1065.72 1091.39 1074.97C1087.75 1080.91 1082.66 1085.35 1076.68 1088.82C1070.96 1092.13 1064.82 1094.22 1058.31 1095.3C1055.22 1095.82 1052.1 1096.09 1048.97 1096.12Z" />
					<path id="&lt;Path&gt;" class="shp25" d="M1071.25 1055.69C1071.35 1055.54 1071.44 1055.38 1071.57 1055.25C1073.93 1052.88 1076.29 1050.52 1078.66 1048.15C1079.55 1047.26 1080.64 1047.13 1081.7 1047.77C1082.77 1048.41 1083.3 1049.66 1082.98 1050.76C1082.85 1051.18 1082.59 1051.51 1082.29 1051.81C1080.35 1053.75 1078.42 1055.69 1076.47 1057.61C1076.2 1057.88 1076.21 1058.04 1076.43 1058.32C1078.59 1061.17 1080.74 1064.02 1082.89 1066.88C1083.83 1068.13 1083.7 1069.72 1082.6 1070.69C1081.37 1071.79 1079.55 1071.61 1078.53 1070.27C1076.6 1067.74 1074.69 1065.19 1072.77 1062.66C1072.72 1062.59 1072.68 1062.52 1072.62 1062.46C1072.4 1062.24 1072.34 1061.82 1071.99 1061.8C1071.72 1061.78 1071.08 1062.76 1071.08 1063.08C1071.08 1064.99 1071.1 1066.89 1071.07 1068.79C1071.06 1070.12 1070.12 1071.17 1068.79 1071.43C1067.59 1071.66 1066.33 1070.99 1065.81 1069.84C1065.63 1069.47 1065.55 1069.07 1065.55 1068.65C1065.56 1062.37 1065.55 1056.09 1065.56 1049.81C1065.56 1048.23 1066.78 1047 1068.31 1047C1069.84 1046.99 1071.06 1048.21 1071.08 1049.79C1071.1 1051.59 1071.08 1053.4 1071.08 1055.2C1071.08 1055.33 1071.08 1055.45 1071.08 1055.58C1071.14 1055.62 1071.19 1055.65 1071.25 1055.69Z" />
					<path id="&lt;Path&gt;" class="shp25" d="M1038.19 1066.66C1036.91 1066.66 1035.63 1066.67 1034.35 1066.65C1034.06 1066.65 1033.92 1066.73 1033.82 1067.01C1033.5 1067.92 1033.14 1068.82 1032.79 1069.72C1032.26 1071.11 1031.29 1071.66 1029.8 1071.44C1027.86 1071.16 1027.19 1070.17 1027.6 1068.19C1027.86 1066.95 1028.4 1065.8 1028.84 1064.62C1030.71 1059.68 1032.59 1054.74 1034.47 1049.81C1035.02 1048.36 1036.03 1047.39 1037.57 1047.08C1039.31 1046.73 1041.14 1047.85 1041.84 1049.66C1042.88 1052.36 1043.9 1055.07 1044.93 1057.78C1046.08 1060.82 1047.25 1063.86 1048.4 1066.91C1048.72 1067.75 1048.92 1068.63 1048.84 1069.55C1048.76 1070.34 1048.39 1070.9 1047.62 1071.18C1047.06 1071.38 1046.49 1071.5 1045.89 1071.47C1044.79 1071.4 1043.96 1070.98 1043.6 1069.82C1043.31 1068.89 1042.89 1067.99 1042.56 1067.07C1042.45 1066.76 1042.32 1066.64 1041.98 1066.65C1040.72 1066.67 1039.45 1066.66 1038.19 1066.66Z" />
					<path id="&lt;Path&gt;" class="shp25" d="M1019.03 1060.82C1019.03 1058.2 1019.02 1055.57 1019.04 1052.95C1019.04 1052.54 1018.97 1052.38 1018.51 1052.4C1017.28 1052.43 1016.05 1052.42 1014.82 1052.41C1013.21 1052.4 1012.02 1051.27 1012.01 1049.75C1012 1048.2 1013.18 1047 1014.8 1047C1019.47 1046.98 1024.14 1046.98 1028.81 1047C1030.29 1047 1031.45 1048.03 1031.59 1049.4C1031.74 1050.75 1030.9 1051.97 1029.57 1052.33C1029.3 1052.41 1029.02 1052.41 1028.74 1052.41C1027.52 1052.41 1026.29 1052.43 1025.06 1052.4C1024.65 1052.39 1024.57 1052.53 1024.57 1052.9C1024.58 1058.13 1024.58 1063.36 1024.58 1068.59C1024.58 1069.98 1023.89 1070.99 1022.68 1071.37C1020.84 1071.95 1019.05 1070.67 1019.04 1068.74C1019.02 1066.1 1019.03 1063.46 1019.03 1060.82Z" />
					<path id="&lt;Path&gt;" class="shp25" d="M1050.3 1059.13C1050.3 1056.01 1050.29 1052.9 1050.3 1049.78C1050.31 1048.32 1051.35 1047.2 1052.84 1047.01C1054.17 1046.84 1055.49 1047.76 1055.85 1049.09C1055.95 1049.43 1055.94 1049.77 1055.94 1050.12C1055.94 1055.25 1055.94 1060.38 1055.93 1065.51C1055.92 1065.95 1056.04 1066.06 1056.47 1066.05C1058.27 1066.03 1060.08 1066.03 1061.88 1066.05C1063.29 1066.06 1064.41 1067.12 1064.47 1068.43C1064.53 1069.81 1063.45 1071.06 1062.05 1071.08C1058.94 1071.11 1055.82 1071.11 1052.71 1071.08C1051.36 1071.06 1050.3 1069.89 1050.3 1068.52C1050.29 1065.39 1050.3 1062.26 1050.3 1059.13Z" />
					<path id="&lt;Path&gt;" class="shp0" d="M1038.18 1053.91C1039.13 1056.59 1040.03 1059.14 1040.95 1061.75C1039.75 1061.75 1038.6 1061.75 1037.46 1061.75C1036.92 1061.75 1036.37 1061.73 1035.83 1061.76C1035.48 1061.78 1035.43 1061.69 1035.55 1061.36C1036.26 1059.37 1036.96 1057.38 1037.66 1055.39C1037.82 1054.94 1037.98 1054.5 1038.18 1053.91Z" />
				</g>
			</g>
		</g>
		<g id="Skype">
			<path id="&lt;Path&gt;" class="shp1" d="M667.5 864.64C667.5 901.92 637.28 932.14 600 932.14C562.72 932.14 532.5 901.92 532.5 864.64C532.5 827.36 562.72 797.14 600 797.14C637.28 797.14 667.5 827.36 667.5 864.64Z" />
			<g id="&lt;Group&gt;">
				<g id="&lt;Group&gt;">
					<path id="&lt;Path&gt;" class="shp26" d="M608.13 845.44C608.13 860.2 596.12 872.17 581.31 872.17C566.51 872.17 554.5 860.2 554.5 845.44C554.5 830.68 566.51 818.72 581.31 818.72C596.12 818.72 608.13 830.68 608.13 845.44Z" />
					<path id="&lt;Path&gt;" class="shp27" d="M645.5 883.82C645.5 898.59 633.49 910.56 618.68 910.56C603.86 910.56 591.85 898.59 591.85 883.82C591.85 869.06 603.86 857.09 618.68 857.09C633.49 857.09 645.5 869.06 645.5 883.82Z" />
					<path id="&lt;Path&gt;" class="shp28" d="M584.65 818.92C597.24 820.5 607 830.68 608.04 843.32C609.26 858.08 598.28 871.03 583.52 872.25C568.77 873.46 555.82 862.49 554.6 847.73C559.8 834.11 570.83 823.54 584.65 818.92Z" />
					<path id="&lt;Path&gt;" class="shp28" d="M645.43 881.9C640.35 895.23 629.68 905.66 616.25 910.45C603.13 909.26 592.81 898.71 591.91 885.57C590.9 870.79 602.06 857.99 616.84 856.98C631.62 855.97 644.42 867.13 645.43 881.9L645.43 881.9Z" />
					<path id="&lt;Path&gt;" class="shp29" d="M590.75 820.42C598.37 823.28 604.28 829.45 606.8 837.18C611.4 851.25 603.73 866.39 589.66 870.99C575.59 875.59 560.45 867.91 555.85 853.84C560.14 836.95 573.68 823.97 590.75 820.42Z" />
					<path id="&lt;Path&gt;" class="shp29" d="M609.95 909.11C601.93 906.35 595.69 899.97 593.11 891.89C588.62 877.78 596.42 862.7 610.53 858.21C624.64 853.71 639.72 861.51 644.21 875.62C640.05 892.37 626.79 905.33 609.95 909.11Z" />
					<path id="&lt;Path&gt;" class="shp29" d="M593.25 821.5C598.84 824.28 603.29 828.93 605.82 834.63C611.83 848.16 605.73 863.99 592.2 870C578.67 876 562.84 869.9 556.84 856.37C560.47 838.27 575 824.35 593.25 821.5Z" />
					<path id="&lt;Path&gt;" class="shp29" d="M607.36 908.07C601.43 905.31 596.71 900.48 594.09 894.48C588.17 880.91 594.36 865.11 607.93 859.19C621.5 853.27 637.3 859.47 643.22 873.03C639.73 891.04 625.45 905 607.36 908.07Z" />
					<path id="&lt;Path&gt;" class="shp30" d="M642.48 864.84C642.48 888.21 623.46 907.17 600 907.17C576.55 907.17 557.53 888.21 557.53 864.84C557.53 841.46 576.55 822.51 600 822.51C623.46 822.51 642.48 841.46 642.48 864.84Z" />
					<path id="&lt;Path&gt;" class="shp1" d="M588.06 863.37C586.35 862.24 584.91 860.73 583.88 858.95C582.88 857.08 582.38 854.97 582.44 852.85C582.37 850.16 583.29 847.53 585.03 845.47C586.84 843.4 589.16 841.85 591.76 840.97C594.59 839.97 597.58 839.46 600.58 839.48C602.54 839.46 604.51 839.61 606.45 839.93C607.83 840.15 609.2 840.5 610.51 840.98C611.72 841.39 612.82 842.09 613.7 843.01C614.35 843.78 614.7 844.75 614.68 845.75C614.73 846.8 614.36 847.82 613.65 848.6C612.97 849.31 612.03 849.71 611.05 849.68C610.38 849.68 609.72 849.53 609.12 849.25C607.62 848.58 606.09 848.02 604.51 847.56C603.07 847.18 601.58 847 600.08 847.01C598.13 846.94 596.2 847.43 594.53 848.43C593.09 849.31 592.24 850.9 592.31 852.58C592.3 853.67 592.71 854.71 593.46 855.5C594.35 856.42 595.4 857.17 596.56 857.72C597.86 858.36 599.8 859.22 602.38 860.28C602.67 860.37 602.94 860.49 603.21 860.62C605.73 861.61 608.14 862.85 610.41 864.32C612.21 865.49 613.72 867.04 614.85 868.87C615.95 870.79 616.51 872.97 616.45 875.19C616.54 877.9 615.76 880.57 614.23 882.8C612.67 884.92 610.51 886.52 608.03 887.4C605.04 888.47 601.89 888.99 598.71 888.92C594.35 889.08 590.01 888.25 586.01 886.52C584.99 886.06 584.09 885.37 583.4 884.49C582.82 883.68 582.52 882.71 582.55 881.72C582.49 880.66 582.9 879.63 583.66 878.9C584.46 878.21 585.49 877.84 586.54 877.89C587.72 877.9 588.87 878.2 589.91 878.75C591.2 879.4 592.22 879.88 592.96 880.2C593.81 880.56 594.7 880.84 595.6 881.04C596.71 881.28 597.84 881.4 598.98 881.39C600.99 881.53 602.99 881 604.66 879.87C605.93 878.88 606.65 877.33 606.58 875.72C606.58 874.59 606.15 873.51 605.38 872.69C604.36 871.63 603.16 870.76 601.85 870.12C600.29 869.3 598.1 868.3 595.28 867.12C592.75 866.11 590.34 864.85 588.06 863.37Z" />
				</g>
			</g>
		</g>
		<g id="TikTok">
			<path id="&lt;Path&gt;" class="shp31" d="M443.33 472.46C443.33 509.74 413.11 539.96 375.83 539.96C338.56 539.96 308.33 509.74 308.33 472.46C308.33 435.18 338.56 404.96 375.83 404.96C413.11 404.96 443.33 435.18 443.33 472.46Z" />
			<g id="&lt;Group&gt;">
				<g id="&lt;Group&gt;">
					<path id="&lt;Path&gt;" class="shp1" d="M357.82 499.56C357.9 499.63 357.98 499.7 358.06 499.78C358.81 500.31 359.35 501.06 360.07 501.64C362.29 503.42 364.78 504.39 367.64 504.56C374.43 504.98 380.34 499.88 381.1 493.17C381.14 492.85 381.13 492.52 381.13 492.19C381.13 472 381.13 451.8 381.13 431.61C381.13 430.25 381.13 430.25 382.48 430.25C385.55 430.25 388.62 430.25 391.69 430.25C391.98 430.25 392.28 430.2 392.54 430.38C392.56 430.39 392.57 430.41 392.59 430.42C392.74 430.57 392.78 430.77 392.83 430.96C394 436.41 396.87 440.75 401.36 444.03C401.64 444.23 401.88 444.49 402.15 444.71C402.34 444.87 402.54 445.04 402.73 445.2C403.46 445.62 403.97 446.28 404.6 446.8C407.08 448.87 409.89 450.3 413.01 451.1C413.29 451.18 413.6 451.17 413.8 451.43C413.82 451.45 413.84 451.46 413.86 451.48C414.04 451.67 414.01 451.92 414.01 452.15C414.01 455.71 414.01 459.27 414.01 462.83C414.01 463.64 413.9 463.69 413.08 463.69C410.47 463.69 407.91 463.34 405.37 462.76C401.01 461.76 396.99 459.99 393.26 457.54C393.07 457.41 392.86 457.14 392.66 457.23C392.39 457.35 392.53 457.69 392.53 457.93C392.52 467.96 392.57 477.98 392.51 488C392.47 495.01 390.24 501.27 385.65 506.61C380.78 512.29 374.59 515.58 367.16 516.49C361.44 517.19 356 516.15 350.85 513.6C350.01 513.19 349.21 512.71 348.47 512.15C348.23 511.94 348 511.73 347.76 511.52C345.99 510.06 344.75 508.16 343.59 506.21C341.82 503.21 340.66 499.97 340.1 496.53C339.78 494.56 339.62 492.57 339.72 490.58C340.07 484.17 342.23 478.44 346.37 473.49C349.84 469.34 354.18 466.44 359.29 464.69C361.42 463.96 363.62 463.51 365.87 463.35C366.29 463.32 366.7 463.22 367.13 463.25C367.33 463.26 367.53 463.24 367.7 463.38C367.72 463.4 367.74 463.41 367.76 463.42C367.88 463.63 367.85 463.85 367.85 464.07C367.86 467.68 367.86 471.29 367.85 474.9C367.85 475.03 367.85 475.16 367.84 475.29C367.83 475.65 367.64 475.77 367.3 475.67C366.31 475.39 365.3 475.26 364.28 475.21C362.69 475.12 361.13 475.35 359.65 475.9C354.69 477.73 351.67 481.28 351.04 486.52C350.42 491.69 352.46 495.82 356.75 498.79C357.11 499.04 357.48 499.27 357.82 499.56Z" />
					<path id="&lt;Path&gt;" class="shp32" d="M348.47 512.15C348.66 512.1 348.77 512.25 348.9 512.33C352.13 514.3 355.62 515.59 359.35 516.19C361.22 516.49 363.12 516.62 365.02 516.52C371.38 516.19 377.06 514.07 381.98 510.01C386.71 506.1 389.85 501.16 391.43 495.23C391.92 493.35 392.2 491.45 392.3 489.51C392.35 488.39 392.35 487.28 392.35 486.17C392.35 476.62 392.35 467.07 392.35 457.52C392.35 457.3 392.35 457.08 392.35 456.86C392.6 456.8 392.71 456.98 392.85 457.08C396.25 459.4 399.93 461.13 403.91 462.22C406.09 462.82 408.31 463.22 410.57 463.42C411.51 463.51 412.46 463.49 413.41 463.56C413.82 463.59 413.83 463.58 413.83 463.14C413.84 462.69 413.84 462.23 413.84 461.77C413.84 458.54 413.84 455.31 413.84 452.08C413.84 451.88 413.85 451.68 413.86 451.48C414.71 451.57 415.55 451.75 416.4 451.82C416.93 451.86 417.46 451.91 417.99 451.89C418.25 451.88 418.36 451.98 418.33 452.24C418.32 452.35 418.33 452.46 418.33 452.57C418.33 457.24 418.33 461.92 418.33 466.59C418.33 466.68 418.33 466.77 418.33 466.87C418.32 467.27 418.32 467.28 417.89 467.28C416.42 467.28 414.97 467.18 413.52 466.99C410.56 466.6 407.68 465.87 404.9 464.79C402.24 463.75 399.72 462.42 397.37 460.8C397.22 460.7 397.07 460.61 396.85 460.47C396.85 460.74 396.85 460.93 396.85 461.12C396.85 471.33 396.85 481.54 396.84 491.74C396.84 497.18 395.43 502.24 392.53 506.85C389.02 512.42 384.16 516.34 377.97 518.58C374.22 519.95 370.34 520.47 366.34 520.18C359.62 519.68 353.79 517.11 348.84 512.55C348.7 512.43 348.59 512.28 348.47 512.15Z" />
					<path id="&lt;Path&gt;" class="shp33" d="M392.54 430.38C392.34 430.39 392.14 430.41 391.94 430.41C388.65 430.41 385.36 430.41 382.08 430.41C381.31 430.41 381.31 430.41 381.31 431.15C381.31 451.23 381.31 471.32 381.32 491.41C381.32 492.8 381.22 494.18 380.78 495.51C379.23 500.21 376.08 503.31 371.26 504.41C366.09 505.59 361.7 504.01 358.21 500C358.15 499.94 358.11 499.85 358.06 499.78C359.06 500.17 360.06 500.57 361.12 500.78C364.49 501.45 367.67 500.93 370.59 499.13C373.97 497.05 375.96 494 376.66 490.11C376.79 489.37 376.81 488.62 376.81 487.87C376.81 467.75 376.81 447.62 376.81 427.5C376.81 426.56 376.68 426.68 377.62 426.68C382.26 426.67 386.9 426.68 391.54 426.68C391.65 426.68 391.76 426.67 391.87 426.68C392.34 426.68 392.35 426.68 392.35 427.17C392.34 428.24 392.33 429.32 392.54 430.38Z" />
					<path id="&lt;Path&gt;" class="shp33" d="M367.7 463.38C364.87 463.48 362.09 463.93 359.4 464.82C355.5 466.12 352.04 468.15 349.03 470.93C345.07 474.58 342.37 479 340.89 484.17C340.37 486.01 340.06 487.9 339.93 489.81C339.85 490.96 339.82 492.11 339.88 493.26C340.05 496.44 340.71 499.53 341.92 502.49C343.28 505.8 345.17 508.75 347.64 511.35C347.69 511.4 347.72 511.46 347.76 511.52C347.2 511.28 346.75 510.87 346.28 510.5C341.68 506.85 338.44 502.25 336.65 496.65C336.03 494.7 335.64 492.7 335.45 490.65C335.32 489.18 335.3 487.7 335.4 486.23C335.62 482.83 336.42 479.57 337.82 476.46C339.29 473.21 341.29 470.33 343.83 467.84C346.79 464.94 350.23 462.76 354.13 461.36C356.58 460.48 359.1 459.94 361.71 459.75C363.59 459.62 365.46 459.66 367.33 459.88C367.58 459.91 367.73 459.96 367.73 460.26C367.71 461.3 367.71 462.34 367.7 463.38Z" />
					<path id="&lt;Path&gt;" class="shp32" d="M357.82 499.56C356.68 499.04 355.69 498.29 354.79 497.43C352.54 495.26 351.2 492.62 350.85 489.51C350.12 483 354.23 477.37 359.94 475.63C362.37 474.89 364.81 474.86 367.27 475.52C367.4 475.56 367.54 475.61 367.69 475.57C367.77 475.38 367.73 475.18 367.73 474.98C367.73 471.33 367.73 467.68 367.73 464.02C367.73 463.82 367.75 463.62 367.76 463.42C369.17 463.33 370.57 463.45 371.97 463.61C372.19 463.64 372.25 463.74 372.24 463.93C372.24 464.04 372.24 464.15 372.24 464.26C372.24 469.1 372.24 473.93 372.24 478.77C372.24 478.95 372.29 479.14 372.17 479.33C371.54 479.21 370.91 479.02 370.26 478.92C366.52 478.4 363.15 479.27 360.19 481.61C357.59 483.66 355.99 486.35 355.45 489.61C354.88 493.07 355.6 496.28 357.59 499.19C357.67 499.31 357.74 499.43 357.82 499.56Z" />
					<path id="&lt;Path&gt;" class="shp32" d="M402.15 444.71C400.74 443.88 399.51 442.83 398.37 441.66C395.33 438.53 393.41 434.82 392.6 430.53C392.59 430.49 392.6 430.46 392.59 430.42C393.91 430.35 395.22 430.41 396.53 430.39C396.77 430.38 396.87 430.47 396.85 430.71C396.84 430.8 396.85 430.89 396.85 430.98C396.78 434.66 397.87 438.02 399.66 441.18C400.3 442.31 401.07 443.36 401.91 444.35C402 444.46 402.13 444.55 402.15 444.71Z" />
					<path id="&lt;Path&gt;" class="shp33" d="M413.8 451.43C410.06 450.63 406.77 448.95 403.92 446.41C403.5 446.03 403.07 445.67 402.73 445.21C402.87 445.19 402.97 445.28 403.08 445.34C405.35 446.63 407.78 447.49 410.35 447.91C411.35 448.08 412.37 448.19 413.39 448.18C413.82 448.17 413.83 448.19 413.83 448.59C413.83 449.54 413.81 450.49 413.8 451.43Z" />
				</g>
			</g>
		</g>
		<g id="Line">
			<path id="&lt;Path&gt;" class="shp34" d="M1115.83 668.55C1115.83 705.83 1085.61 736.05 1048.33 736.05C1011.05 736.05 980.83 705.83 980.83 668.55C980.83 631.27 1011.05 601.05 1048.33 601.05C1085.61 601.05 1115.83 631.27 1115.83 668.55Z" />
			<g id="&lt;Group&gt;">
				<g id="FULL COLOR ICON 3 ">
					<g id="TYPE A 3 ">
						<g id="&lt;Group&gt;">
							<path id="&lt;Path&gt;" class="shp1" d="M1084.25 688.03L1084.25 688.03C1074.6 699.14 1053.02 712.67 1048.11 714.73C1043.2 716.8 1043.93 713.42 1044.13 712.25C1044.2 711.79 1044.42 710.48 1044.78 708.32C1044.94 707.14 1045.1 705.32 1044.63 704.16C1044.12 702.88 1042.08 702.21 1040.58 701.89C1018.48 698.97 1002.11 683.51 1002.11 665.06C1002.11 644.48 1022.75 627.73 1048.11 627.73C1073.48 627.73 1094.11 644.48 1094.11 665.06C1094.11 673.3 1090.92 680.72 1084.25 688.03Z" />
							<g id="&lt;Group&gt;">
								<path id="&lt;Path&gt;" class="shp34" d="M1039.66 656.01L1039.66 676.05C1039.66 676.54 1039.26 676.94 1038.76 676.94L1035.54 676.94C1035.04 676.94 1034.64 676.54 1034.64 676.05L1034.64 656.01C1034.64 655.51 1035.04 655.11 1035.54 655.11L1038.76 655.11C1039.26 655.11 1039.66 655.51 1039.66 656.01Z" />
								<path id="&lt;Path&gt;" class="shp34" d="M1061.87 656.01L1061.87 676.05C1061.87 676.54 1061.47 676.94 1060.97 676.94L1057.75 676.94C1057.67 676.94 1057.59 676.93 1057.52 676.91C1057.51 676.91 1057.51 676.91 1057.5 676.91C1057.48 676.91 1057.46 676.9 1057.44 676.89C1057.43 676.89 1057.43 676.89 1057.42 676.88C1057.4 676.88 1057.39 676.87 1057.37 676.86C1057.36 676.86 1057.34 676.85 1057.33 676.84C1057.32 676.84 1057.31 676.83 1057.3 676.83C1057.29 676.82 1057.27 676.81 1057.25 676.8C1057.25 676.79 1057.24 676.79 1057.24 676.79C1057.15 676.73 1057.08 676.66 1057.01 676.57L1047.82 664.15L1047.82 676.05C1047.82 676.54 1047.41 676.94 1046.92 676.94L1043.69 676.94C1043.2 676.94 1042.8 676.54 1042.8 676.05L1042.8 656.01C1042.8 655.51 1043.2 655.11 1043.69 655.11L1046.92 655.11C1046.93 655.11 1046.94 655.11 1046.95 655.11C1046.97 655.12 1046.98 655.12 1047 655.12C1047.01 655.12 1047.03 655.12 1047.04 655.12C1047.06 655.12 1047.07 655.13 1047.08 655.13C1047.1 655.13 1047.12 655.14 1047.13 655.14C1047.14 655.14 1047.15 655.14 1047.16 655.15C1047.18 655.15 1047.2 655.16 1047.22 655.17C1047.23 655.17 1047.24 655.17 1047.25 655.18C1047.27 655.18 1047.28 655.19 1047.3 655.2C1047.31 655.2 1047.32 655.21 1047.33 655.21C1047.34 655.22 1047.36 655.23 1047.37 655.24C1047.38 655.24 1047.39 655.25 1047.4 655.25C1047.42 655.26 1047.43 655.27 1047.45 655.29C1047.46 655.29 1047.46 655.3 1047.47 655.3C1047.49 655.32 1047.5 655.33 1047.52 655.34C1047.53 655.35 1047.53 655.35 1047.54 655.36C1047.55 655.38 1047.57 655.39 1047.59 655.41C1047.59 655.42 1047.59 655.42 1047.6 655.42C1047.62 655.45 1047.64 655.48 1047.67 655.51L1056.85 667.92L1056.85 656.01C1056.85 655.51 1057.25 655.11 1057.75 655.11L1060.97 655.11C1061.47 655.11 1061.87 655.51 1061.87 656.01Z" />
								<path id="&lt;Path&gt;" class="shp34" d="M1031.88 672.82L1031.88 676.05C1031.88 676.54 1031.48 676.95 1030.99 676.95L1018.1 676.95L1018.1 676.95C1017.86 676.95 1017.64 676.85 1017.48 676.7C1017.47 676.69 1017.47 676.69 1017.46 676.68C1017.46 676.68 1017.46 676.67 1017.45 676.67C1017.3 676.51 1017.2 676.29 1017.2 676.05L1017.2 676.05L1017.2 656.01C1017.2 655.51 1017.6 655.11 1018.1 655.11L1021.32 655.11C1021.82 655.11 1022.22 655.51 1022.22 656.01L1022.22 671.93L1030.99 671.93C1031.48 671.93 1031.88 672.33 1031.88 672.82Z" />
								<path id="&lt;Path&gt;" class="shp34" d="M1070.03 660.13L1070.03 663.52L1078.79 663.52C1079.29 663.52 1079.69 663.92 1079.69 664.42L1079.69 667.64C1079.69 668.14 1079.29 668.54 1078.79 668.54L1070.03 668.54L1070.03 671.93L1078.79 671.93C1079.29 671.93 1079.69 672.33 1079.69 672.82L1079.69 676.05C1079.69 676.54 1079.29 676.95 1078.79 676.95L1065.9 676.95L1065.9 676.95C1065.66 676.95 1065.44 676.85 1065.28 676.69C1065.28 676.69 1065.27 676.69 1065.27 676.68C1065.26 676.68 1065.26 676.67 1065.26 676.67C1065.1 676.51 1065.01 676.29 1065.01 676.05L1065.01 676.05L1065.01 656.01L1065.01 656.01C1065.01 655.77 1065.1 655.55 1065.25 655.39C1065.26 655.39 1065.26 655.38 1065.27 655.38C1065.27 655.37 1065.28 655.37 1065.28 655.37C1065.44 655.21 1065.66 655.11 1065.9 655.11L1065.9 655.11L1078.79 655.11C1079.29 655.11 1079.69 655.51 1079.69 656.01L1079.69 659.24C1079.69 659.73 1079.29 660.13 1078.79 660.13L1070.03 660.13Z" />
							</g>
						</g>
					</g>
				</g>
			</g>
		</g>
		<g id="Facebook">
			<path id="&lt;Path&gt;" class="shp35" d="M162.22 342.13L162.22 294.96L177.94 294.96L180.94 275.45L162.22 275.45L162.22 262.78C162.22 257.45 164.83 252.24 173.22 252.24L181.73 252.24L181.73 235.63C176.58 234.75 171.54 234.31 166.62 234.31C151.2 234.31 141.12 243.66 141.12 260.57L141.12 275.45L123.98 275.45L123.98 294.96L141.12 294.96L141.12 342.13C108.85 337.06 84.17 309.14 84.17 275.45C84.17 238.17 114.39 207.95 151.67 207.95C188.95 207.95 219.17 238.17 219.17 275.45C219.17 309.14 194.49 337.06 162.22 342.13Z" />
			<path id="&lt;Path&gt;" class="shp1" d="M162.22 294.96L162.22 342.13C158.78 342.66 155.26 342.95 151.67 342.95C148.08 342.95 144.56 342.66 141.12 342.13L141.12 294.96L123.98 294.96L123.98 275.45L141.12 275.45L141.12 260.57C141.12 243.66 151.2 234.31 166.62 234.31C171.54 234.31 176.58 234.75 181.73 235.63L181.73 252.24L173.22 252.24C164.83 252.24 162.22 257.45 162.22 262.78L162.22 275.45L180.94 275.45L177.94 294.96L162.22 294.96Z" />
		</g>
		<g id="Spotify">
			<g id="&lt;Group&gt;">
				<g id="&lt;Group&gt;">
					<g id="&lt;Group&gt;">
						<path id="&lt;Compound Path&gt;" fill-rule="evenodd" class="shp36" d="M219.37 668.55C219.37 705.83 189.15 736.05 151.87 736.05C114.6 736.05 84.37 705.83 84.37 668.55C84.37 631.27 114.6 601.05 151.87 601.05C189.15 601.05 219.37 631.27 219.37 668.55ZM181.44 692.62C163.64 681.75 141.59 679.22 115.88 685.1C113.61 685.62 112.19 687.87 112.71 690.14C113.23 692.4 115.48 693.82 117.75 693.3C141.24 687.93 161.2 690.12 177.05 699.81C179.03 701.02 181.62 700.4 182.83 698.41C184.04 696.43 183.42 693.83 181.44 692.62ZM189.36 672.79C168.52 659.99 138.05 656.39 113.53 663.83C110.75 664.67 109.18 667.61 110.02 670.39C110.87 673.17 113.81 674.74 116.59 673.9C138.05 667.38 165.71 670.61 183.85 681.76C186.33 683.28 189.56 682.51 191.09 680.03C192.61 677.56 191.83 674.32 189.36 672.79ZM200.45 658.68C202.23 655.69 201.25 651.81 198.25 650.03C173.2 635.16 133.56 633.76 109.72 641C106.38 642.02 104.5 645.54 105.51 648.88C106.52 652.21 110.05 654.1 113.38 653.09C134.16 646.78 170.04 647.97 191.8 660.89C194.8 662.67 198.67 661.68 200.45 658.68Z" />
					</g>
				</g>
			</g>
			<path id="&lt;Path&gt;" class="shp31" d="M182.83 698.41C181.62 700.4 179.03 701.02 177.05 699.81C161.2 690.12 141.24 687.93 117.75 693.3C115.48 693.82 113.23 692.4 112.71 690.14C112.19 687.87 113.61 685.62 115.88 685.1C141.59 679.22 163.64 681.75 181.44 692.62C183.42 693.83 184.04 696.43 182.83 698.41Z" />
			<path id="&lt;Path&gt;" class="shp31" d="M191.09 680.03C189.56 682.51 186.33 683.28 183.85 681.76C165.71 670.61 138.05 667.38 116.59 673.9C113.81 674.74 110.87 673.17 110.02 670.39C109.18 667.61 110.75 664.67 113.53 663.83C138.05 656.39 168.52 659.99 189.36 672.79C191.83 674.32 192.61 677.56 191.09 680.03Z" />
			<path id="&lt;Path&gt;" class="shp31" d="M191.8 660.89C170.04 647.97 134.16 646.78 113.38 653.09C110.05 654.1 106.52 652.21 105.51 648.88C104.5 645.54 106.38 642.02 109.72 641C133.56 633.76 173.2 635.16 198.25 650.03C201.25 651.81 202.23 655.69 200.45 658.68C198.67 661.68 194.8 662.67 191.8 660.89Z" />
		</g>
	</g>
</svg>