<svg version="1.2" baseProfile="tiny-ps" xmlns="http://www.w3.org/2000/svg" viewBox="0 0 150 150" width="150" height="150">
	<title>v982-d3-01-ai</title>
	<defs>
		<radialGradient id="grd1" gradientUnits="userSpaceOnUse"  cx="45.467" cy="-70.906" r="111.139">
			<stop offset="0" stop-color="#5697fb"  />
			<stop offset="0.61" stop-color="#8936f9"  />
			<stop offset="0.935" stop-color="#dd537e"  />
			<stop offset="1" stop-color="#e06f62"  />
		</radialGradient>
	</defs>
	<style>
		tspan { white-space:pre }
		.shp0 { fill: #ffffff } 
		.shp1 { fill: url(#grd1) } 
		.shp2 { fill: #010201 } 
		.shp3 { fill: #cb1c54 } 
		.shp4 { fill: #6abac5 } 
	</style>
	<g id="Graphic Elements">
		<g id="FB Messenger">
			<path id="&lt;Path&gt;" class="shp0" d="M144.34 -121.55C144.34 -84.27 114.11 -54.05 76.84 -54.05C39.56 -54.05 9.34 -84.27 9.34 -121.55C9.34 -158.83 39.56 -189.05 76.84 -189.05C114.11 -189.05 144.34 -158.83 144.34 -121.55Z" />
			<g id="&lt;Group&gt;">
				<g id="logo 1 ">
					<path id="bubble 1 " class="shp1" d="M127.84 -122.08C127.84 -93.66 105.56 -72.61 76.84 -72.61C71.67 -72.61 66.72 -73.3 62.07 -74.57C61.17 -74.82 60.21 -74.75 59.35 -74.37L49.23 -69.91C46.58 -68.74 43.59 -70.62 43.5 -73.51L43.22 -82.59C43.19 -83.7 42.68 -84.75 41.85 -85.49C31.93 -94.37 25.84 -107.22 25.84 -122.08C25.84 -150.51 48.11 -171.55 76.84 -171.55C105.56 -171.55 127.84 -150.51 127.84 -122.08Z" />
					<path id="bolt 1 " class="shp0" d="M46.21 -107.62L61.19 -131.38C63.57 -135.17 68.68 -136.11 72.25 -133.43L84.17 -124.49C85.26 -123.67 86.77 -123.67 87.85 -124.5L103.95 -136.71C106.09 -138.34 108.9 -135.77 107.46 -133.49L92.48 -109.72C90.1 -105.94 84.99 -105 81.42 -107.68L69.5 -116.62C68.41 -117.44 66.9 -117.43 65.82 -116.61L49.72 -104.4C47.58 -102.77 44.77 -105.34 46.21 -107.62Z" />
				</g>
			</g>
		</g>
		<g id="TikTok">
			<path id="&lt;Path&gt;" class="shp2" d="M142.34 74.46C142.34 111.74 112.11 141.96 74.84 141.96C37.56 141.96 7.34 111.74 7.34 74.46C7.34 37.18 37.56 6.96 74.84 6.96C112.11 6.96 142.34 37.18 142.34 74.46Z" />
			<g id="&lt;Group&gt;">
				<g id="&lt;Group&gt;">
					<path id="&lt;Path&gt;" class="shp0" d="M56.82 101.56C56.9 101.63 56.98 101.7 57.06 101.78C57.81 102.31 58.35 103.06 59.07 103.64C61.29 105.42 63.78 106.39 66.64 106.56C73.43 106.98 79.34 101.88 80.1 95.17C80.14 94.85 80.13 94.52 80.13 94.19C80.13 74 80.13 53.8 80.13 33.61C80.13 32.25 80.13 32.25 81.48 32.25C84.55 32.25 87.62 32.25 90.69 32.25C90.98 32.25 91.28 32.2 91.54 32.38C91.56 32.39 91.57 32.41 91.59 32.42C91.74 32.57 91.78 32.77 91.83 32.96C93 38.41 95.87 42.75 100.36 46.03C100.64 46.23 100.88 46.49 101.15 46.71C101.34 46.87 101.54 47.04 101.73 47.2C102.46 47.62 102.97 48.28 103.6 48.8C106.08 50.87 108.89 52.3 112.01 53.1C112.29 53.18 112.6 53.17 112.8 53.43C112.82 53.45 112.84 53.46 112.86 53.48C113.04 53.67 113.01 53.92 113.01 54.15C113.01 57.71 113.01 61.27 113.01 64.83C113.01 65.64 112.9 65.69 112.08 65.69C109.47 65.69 106.91 65.34 104.37 64.76C100.01 63.76 95.99 61.99 92.26 59.54C92.07 59.41 91.86 59.14 91.66 59.23C91.39 59.35 91.53 59.69 91.53 59.93C91.52 69.96 91.57 79.98 91.51 90C91.47 97.01 89.24 103.27 84.65 108.61C79.78 114.29 73.59 117.58 66.16 118.49C60.44 119.19 55 118.15 49.85 115.6C49.01 115.19 48.21 114.71 47.47 114.15C47.23 113.94 47 113.73 46.76 113.52C44.99 112.06 43.75 110.16 42.59 108.21C40.82 105.21 39.66 101.97 39.1 98.53C38.78 96.56 38.62 94.57 38.72 92.58C39.07 86.17 41.23 80.44 45.37 75.49C48.84 71.34 53.18 68.44 58.29 66.69C60.42 65.96 62.62 65.51 64.87 65.35C65.29 65.32 65.7 65.22 66.13 65.25C66.33 65.26 66.53 65.24 66.7 65.38C66.72 65.4 66.74 65.41 66.76 65.42C66.88 65.63 66.85 65.85 66.85 66.07C66.86 69.68 66.86 73.29 66.85 76.9C66.85 77.03 66.85 77.16 66.84 77.29C66.83 77.65 66.64 77.77 66.3 77.67C65.31 77.39 64.3 77.26 63.28 77.21C61.69 77.12 60.13 77.35 58.65 77.9C53.69 79.73 50.67 83.28 50.04 88.52C49.42 93.69 51.46 97.82 55.75 100.79C56.11 101.04 56.48 101.27 56.82 101.56Z" />
					<path id="&lt;Path&gt;" class="shp3" d="M47.47 114.15C47.66 114.1 47.77 114.25 47.9 114.33C51.13 116.3 54.62 117.59 58.35 118.19C60.22 118.49 62.12 118.62 64.02 118.52C70.38 118.19 76.06 116.07 80.98 112.01C85.71 108.1 88.85 103.16 90.43 97.23C90.92 95.35 91.2 93.45 91.3 91.51C91.35 90.39 91.35 89.28 91.35 88.17C91.35 78.62 91.35 69.07 91.35 59.52C91.35 59.3 91.35 59.08 91.35 58.86C91.6 58.8 91.71 58.98 91.85 59.08C95.25 61.4 98.93 63.13 102.91 64.22C105.09 64.82 107.31 65.22 109.57 65.42C110.51 65.51 111.46 65.49 112.41 65.56C112.82 65.59 112.83 65.58 112.83 65.14C112.84 64.69 112.84 64.23 112.84 63.77C112.84 60.54 112.84 57.31 112.84 54.08C112.84 53.88 112.85 53.68 112.86 53.48C113.71 53.57 114.55 53.75 115.4 53.82C115.93 53.86 116.46 53.91 116.99 53.89C117.25 53.88 117.36 53.98 117.33 54.24C117.32 54.35 117.33 54.46 117.33 54.57C117.33 59.24 117.33 63.92 117.33 68.59C117.33 68.68 117.33 68.77 117.33 68.87C117.32 69.27 117.32 69.28 116.89 69.28C115.42 69.28 113.97 69.18 112.52 68.99C109.56 68.6 106.68 67.87 103.9 66.79C101.24 65.75 98.72 64.42 96.37 62.8C96.22 62.7 96.07 62.61 95.85 62.47C95.85 62.74 95.85 62.93 95.85 63.12C95.85 73.33 95.85 83.54 95.84 93.74C95.84 99.18 94.43 104.24 91.53 108.85C88.02 114.42 83.16 118.34 76.97 120.58C73.22 121.95 69.34 122.47 65.34 122.18C58.62 121.68 52.79 119.11 47.84 114.55C47.7 114.43 47.59 114.28 47.47 114.15Z" />
					<path id="&lt;Path&gt;" class="shp4" d="M91.54 32.38C91.34 32.39 91.14 32.41 90.94 32.41C87.65 32.41 84.36 32.41 81.08 32.41C80.31 32.41 80.31 32.41 80.31 33.15C80.31 53.23 80.31 73.32 80.32 93.41C80.32 94.8 80.22 96.18 79.78 97.51C78.23 102.21 75.08 105.31 70.26 106.41C65.09 107.59 60.7 106.01 57.21 102C57.15 101.94 57.11 101.85 57.06 101.78C58.06 102.17 59.06 102.57 60.12 102.78C63.49 103.45 66.67 102.93 69.59 101.13C72.97 99.05 74.96 96 75.66 92.11C75.79 91.37 75.81 90.62 75.81 89.87C75.81 69.75 75.81 49.62 75.81 29.5C75.81 28.56 75.68 28.68 76.62 28.68C81.26 28.67 85.9 28.68 90.54 28.68C90.65 28.68 90.76 28.67 90.87 28.68C91.34 28.68 91.35 28.68 91.35 29.17C91.34 30.24 91.33 31.32 91.54 32.38Z" />
					<path id="&lt;Path&gt;" class="shp4" d="M66.7 65.38C63.87 65.48 61.09 65.93 58.4 66.82C54.5 68.12 51.04 70.15 48.03 72.93C44.07 76.58 41.37 81 39.89 86.17C39.37 88.01 39.06 89.9 38.93 91.81C38.85 92.96 38.82 94.11 38.88 95.26C39.05 98.44 39.71 101.53 40.92 104.49C42.28 107.8 44.17 110.75 46.64 113.35C46.69 113.4 46.72 113.46 46.76 113.52C46.2 113.28 45.75 112.87 45.28 112.5C40.68 108.85 37.44 104.25 35.65 98.65C35.03 96.7 34.64 94.7 34.45 92.65C34.32 91.18 34.3 89.7 34.4 88.23C34.62 84.83 35.42 81.57 36.82 78.46C38.29 75.21 40.29 72.33 42.83 69.84C45.79 66.94 49.23 64.76 53.13 63.36C55.58 62.48 58.1 61.94 60.71 61.75C62.59 61.62 64.46 61.66 66.33 61.88C66.58 61.91 66.73 61.96 66.73 62.26C66.71 63.3 66.71 64.34 66.7 65.38Z" />
					<path id="&lt;Path&gt;" class="shp3" d="M56.82 101.56C55.68 101.04 54.69 100.29 53.79 99.43C51.54 97.26 50.2 94.62 49.85 91.51C49.12 85 53.23 79.37 58.94 77.63C61.37 76.89 63.81 76.86 66.27 77.52C66.4 77.56 66.54 77.61 66.69 77.57C66.77 77.38 66.73 77.18 66.73 76.98C66.73 73.33 66.73 69.68 66.73 66.02C66.73 65.82 66.75 65.62 66.76 65.42C68.17 65.33 69.57 65.45 70.97 65.61C71.19 65.64 71.25 65.74 71.24 65.93C71.24 66.04 71.24 66.15 71.24 66.26C71.24 71.1 71.24 75.93 71.24 80.77C71.24 80.95 71.29 81.14 71.17 81.33C70.54 81.21 69.91 81.02 69.26 80.92C65.52 80.4 62.15 81.27 59.19 83.61C56.59 85.66 54.99 88.35 54.45 91.61C53.88 95.07 54.6 98.28 56.59 101.19C56.67 101.31 56.74 101.43 56.82 101.56Z" />
					<path id="&lt;Path&gt;" class="shp3" d="M101.15 46.71C99.74 45.88 98.51 44.83 97.37 43.66C94.33 40.53 92.41 36.82 91.6 32.53C91.59 32.49 91.6 32.46 91.59 32.42C92.91 32.35 94.22 32.41 95.53 32.39C95.77 32.38 95.87 32.47 95.85 32.71C95.84 32.8 95.85 32.89 95.85 32.98C95.78 36.66 96.87 40.02 98.66 43.18C99.3 44.31 100.07 45.36 100.91 46.35C101 46.46 101.13 46.55 101.15 46.71Z" />
					<path id="&lt;Path&gt;" class="shp4" d="M112.8 53.43C109.06 52.63 105.77 50.95 102.92 48.41C102.5 48.03 102.07 47.67 101.73 47.21C101.87 47.19 101.97 47.28 102.08 47.34C104.35 48.63 106.78 49.49 109.35 49.91C110.35 50.08 111.37 50.19 112.39 50.18C112.82 50.17 112.83 50.19 112.83 50.59C112.83 51.54 112.81 52.49 112.8 53.43Z" />
				</g>
			</g>
		</g>
	</g>
</svg>